<mxfile host="app.diagrams.net" agent="Mozilla/5.0 (Windows NT 10.0; Win64; x64) AppleWebKit/537.36 (KHTML, like Gecko) Chrome/130.0.0.0 Safari/537.36" version="24.8.3">
  <diagram name="Page-1" id="g0avrcMqmfEcs5JsSEUh">
    <mxGraphModel dx="3914" dy="619" grid="1" gridSize="10" guides="1" tooltips="1" connect="1" arrows="1" fold="1" page="1" pageScale="1" pageWidth="827" pageHeight="1169" math="0" shadow="0">
      <root>
        <mxCell id="0" />
        <mxCell id="1" parent="0" />
        <UserObject label="" plantUmlData="{&#xa;  &quot;data&quot;: &quot;@startuml\nactor Student as \&quot;Student/User\&quot;\nactor Instructor\nactor Admin as \&quot;Admin/Moderator\&quot;\nactor AI as \&quot;AI System\&quot;\nactor PrivacySystem as \&quot;Data Privacy System\&quot;\n\nrectangle \&quot;Personalized Learning and Study Support\&quot; {\n    Student --&gt; (Set Learning Preferences)\n    Student --&gt; (Receive Study Recommendations)\n    Student --&gt; (Access Study Resources)\n    Student --&gt; (Receive Study Reminders)\n    Student --&gt; (Participate in Quizzes)\n    Student --&gt; (Track Progress)\n}\n\nrectangle \&quot;Social Interaction and Community\&quot; {\n    Student --&gt; (Join Discussion Rooms)\n    Student --&gt; (Create/Join Study Groups)\n    Student --&gt; (Send Messages)\n    Student --&gt; (Participate in Tutoring Sessions)\n    Student --&gt; (Attend Events)\n}\n\nrectangle \&quot;Mental Health and Well-being Support\&quot; {\n    Student --&gt; (Access Mental Health Resources)\n    Student --&gt; (Set Well-being Reminders)\n    Student --&gt; (Participate in Well-being Discussions)\n}\n\nrectangle \&quot;Content Management\&quot; {\n    Instructor --&gt; (Upload Study Materials)\n    Admin --&gt; (Manage Discussion Rooms)\n    Instructor --&gt; (Host Tutoring Sessions)\n}\n\nrectangle \&quot;Personalization and AI-driven Support\&quot; {\n    AI --&gt; (Analyze Learning Data)\n    AI --&gt; (Send Personalized Notifications)\n    AI --&gt; (Provide Study Suggestions)\n}\n\nrectangle \&quot;Data Privacy and Compliance\&quot; {\n    PrivacySystem --&gt; (Manage User Data Consent)\n    PrivacySystem --&gt; (Handle Privacy Settings)\n    PrivacySystem --&gt; (Comply with GDPR Standards)\n}\n\n@enduml\n&quot;,&#xa;  &quot;format&quot;: &quot;svg&quot;&#xa;}" id="_Vbfhu-zVOPFsl2eH2tf-1">
          <mxCell style="shape=image;noLabel=1;verticalAlign=top;aspect=fixed;imageAspect=0;image=data:image/svg+xml,PD94bWwgdmVyc2lvbj0iMS4wIiBlbmNvZGluZz0idXMtYXNjaWkiIHN0YW5kYWxvbmU9Im5vIj8+PHN2ZyB4bWxucz0iaHR0cDovL3d3dy53My5vcmcvMjAwMC9zdmciIHhtbG5zOnhsaW5rPSJodHRwOi8vd3d3LnczLm9yZy8xOTk5L3hsaW5rIiBjb250ZW50U3R5bGVUeXBlPSJ0ZXh0L2NzcyIgaGVpZ2h0PSIyMjRweCIgcHJlc2VydmVBc3BlY3RSYXRpbz0ibm9uZSIgc3R5bGU9IndpZHRoOjU1MjlweDtoZWlnaHQ6MjI0cHg7YmFja2dyb3VuZDojRkZGRkZGOyIgdmVyc2lvbj0iMS4xIiB2aWV3Qm94PSIwIDAgNTUyOSAyMjQiIHdpZHRoPSI1NTI5cHgiIHpvb21BbmRQYW49Im1hZ25pZnkiPjxkZWZzLz48Zz48IS0tY2x1c3RlciBQZXJzb25hbGl6ZWQgTGVhcm5pbmcgYW5kIFN0dWR5IFN1cHBvcnQtLT48ZyBpZD0iY2x1c3Rlcl9QZXJzb25hbGl6ZWQgTGVhcm5pbmcgYW5kIFN0dWR5IFN1cHBvcnQiPjxyZWN0IGZpbGw9Im5vbmUiIGhlaWdodD0iMTAxIiByeD0iMi41IiByeT0iMi41IiBzdHlsZT0ic3Ryb2tlOiMxODE4MTg7c3Ryb2tlLXdpZHRoOjEuMDsiIHdpZHRoPSIxMzU3IiB4PSI3IiB5PSIxMTIuNSIvPjx0ZXh0IGZpbGw9IiMwMDAwMDAiIGZvbnQtZmFtaWx5PSJzYW5zLXNlcmlmIiBmb250LXNpemU9IjE0IiBmb250LXdlaWdodD0iYm9sZCIgbGVuZ3RoQWRqdXN0PSJzcGFjaW5nIiB0ZXh0TGVuZ3RoPSIyNzMiIHg9IjU0OSIgeT0iMTI3LjczNDQiPlBlcnNvbmFsaXplZCBMZWFybmluZyBhbmQgU3R1ZHkgU3VwcG9ydDwvdGV4dD48L2c+PCEtLWNsdXN0ZXIgU29jaWFsIEludGVyYWN0aW9uIGFuZCBDb21tdW5pdHktLT48ZyBpZD0iY2x1c3Rlcl9Tb2NpYWwgSW50ZXJhY3Rpb24gYW5kIENvbW11bml0eSI+PHJlY3QgZmlsbD0ibm9uZSIgaGVpZ2h0PSIxMDUiIHJ4PSIyLjUiIHJ5PSIyLjUiIHN0eWxlPSJzdHJva2U6IzE4MTgxODtzdHJva2Utd2lkdGg6MS4wOyIgd2lkdGg9IjEwODAiIHg9IjEzODgiIHk9IjExMC41Ii8+PHRleHQgZmlsbD0iIzAwMDAwMCIgZm9udC1mYW1pbHk9InNhbnMtc2VyaWYiIGZvbnQtc2l6ZT0iMTQiIGZvbnQtd2VpZ2h0PSJib2xkIiBsZW5ndGhBZGp1c3Q9InNwYWNpbmciIHRleHRMZW5ndGg9IjIyNiIgeD0iMTgxNSIgeT0iMTI1LjczNDQiPlNvY2lhbCBJbnRlcmFjdGlvbiBhbmQgQ29tbXVuaXR5PC90ZXh0PjwvZz48IS0tY2x1c3RlciBNZW50YWwgSGVhbHRoIGFuZCBXZWxsLWJlaW5nIFN1cHBvcnQtLT48ZyBpZD0iY2x1c3Rlcl9NZW50YWwgSGVhbHRoIGFuZCBXZWxsLWJlaW5nIFN1cHBvcnQiPjxyZWN0IGZpbGw9Im5vbmUiIGhlaWdodD0iMTExIiByeD0iMi41IiByeT0iMi41IiBzdHlsZT0ic3Ryb2tlOiMxODE4MTg7c3Ryb2tlLXdpZHRoOjEuMDsiIHdpZHRoPSI4MzIiIHg9IjI0OTIiIHk9IjEwNy41Ii8+PHRleHQgZmlsbD0iIzAwMDAwMCIgZm9udC1mYW1pbHk9InNhbnMtc2VyaWYiIGZvbnQtc2l6ZT0iMTQiIGZvbnQtd2VpZ2h0PSJib2xkIiBsZW5ndGhBZGp1c3Q9InNwYWNpbmciIHRleHRMZW5ndGg9IjI1MiIgeD0iMjc4MiIgeT0iMTIyLjczNDQiPk1lbnRhbCBIZWFsdGggYW5kIFdlbGwtYmVpbmcgU3VwcG9ydDwvdGV4dD48L2c+PCEtLWNsdXN0ZXIgQ29udGVudCBNYW5hZ2VtZW50LS0+PGcgaWQ9ImNsdXN0ZXJfQ29udGVudCBNYW5hZ2VtZW50Ij48cmVjdCBmaWxsPSJub25lIiBoZWlnaHQ9IjkzIiByeD0iMi41IiByeT0iMi41IiBzdHlsZT0ic3Ryb2tlOiMxODE4MTg7c3Ryb2tlLXdpZHRoOjEuMDsiIHdpZHRoPSI2NzMiIHg9IjMzNDgiIHk9IjExNi41Ii8+PHRleHQgZmlsbD0iIzAwMDAwMCIgZm9udC1mYW1pbHk9InNhbnMtc2VyaWYiIGZvbnQtc2l6ZT0iMTQiIGZvbnQtd2VpZ2h0PSJib2xkIiBsZW5ndGhBZGp1c3Q9InNwYWNpbmciIHRleHRMZW5ndGg9IjEyNyIgeD0iMzYyMSIgeT0iMTMxLjczNDQiPkNvbnRlbnQgTWFuYWdlbWVudDwvdGV4dD48L2c+PCEtLWNsdXN0ZXIgUGVyc29uYWxpemF0aW9uIGFuZCBBSS1kcml2ZW4gU3VwcG9ydC0tPjxnIGlkPSJjbHVzdGVyX1BlcnNvbmFsaXphdGlvbiBhbmQgQUktZHJpdmVuIFN1cHBvcnQiPjxyZWN0IGZpbGw9Im5vbmUiIGhlaWdodD0iMTAzIiByeD0iMi41IiByeT0iMi41IiBzdHlsZT0ic3Ryb2tlOiMxODE4MTg7c3Ryb2tlLXdpZHRoOjEuMDsiIHdpZHRoPSI3MzkiIHg9IjQwNDUiIHk9IjExMS41Ii8+PHRleHQgZmlsbD0iIzAwMDAwMCIgZm9udC1mYW1pbHk9InNhbnMtc2VyaWYiIGZvbnQtc2l6ZT0iMTQiIGZvbnQtd2VpZ2h0PSJib2xkIiBsZW5ndGhBZGp1c3Q9InNwYWNpbmciIHRleHRMZW5ndGg9IjI1OSIgeD0iNDI4NSIgeT0iMTI2LjczNDQiPlBlcnNvbmFsaXphdGlvbiBhbmQgQUktZHJpdmVuIFN1cHBvcnQ8L3RleHQ+PC9nPjwhLS1jbHVzdGVyIERhdGEgUHJpdmFjeSBhbmQgQ29tcGxpYW5jZS0tPjxnIGlkPSJjbHVzdGVyX0RhdGEgUHJpdmFjeSBhbmQgQ29tcGxpYW5jZSI+PHJlY3QgZmlsbD0ibm9uZSIgaGVpZ2h0PSI5NyIgcng9IjIuNSIgcnk9IjIuNSIgc3R5bGU9InN0cm9rZTojMTgxODE4O3N0cm9rZS13aWR0aDoxLjA7IiB3aWR0aD0iNzE1IiB4PSI0ODA4IiB5PSIxMTQuNSIvPjx0ZXh0IGZpbGw9IiMwMDAwMDAiIGZvbnQtZmFtaWx5PSJzYW5zLXNlcmlmIiBmb250LXNpemU9IjE0IiBmb250LXdlaWdodD0iYm9sZCIgbGVuZ3RoQWRqdXN0PSJzcGFjaW5nIiB0ZXh0TGVuZ3RoPSIxOTAiIHg9IjUwNzAuNSIgeT0iMTI5LjczNDQiPkRhdGEgUHJpdmFjeSBhbmQgQ29tcGxpYW5jZTwvdGV4dD48L2c+PGcgaWQ9ImVsZW1fU2V0IExlYXJuaW5nIFByZWZlcmVuY2VzIj48ZWxsaXBzZSBjeD0iMTI0Ni45ODUiIGN5PSIxNzEuNDk3IiBmaWxsPSIjRjFGMUYxIiByeD0iMTAwLjQ4NSIgcnk9IjIyLjQ5NyIgc3R5bGU9InN0cm9rZTojMTgxODE4O3N0cm9rZS13aWR0aDowLjU7Ii8+PHRleHQgZmlsbD0iIzAwMDAwMCIgZm9udC1mYW1pbHk9InNhbnMtc2VyaWYiIGZvbnQtc2l6ZT0iMTQiIGxlbmd0aEFkanVzdD0ic3BhY2luZyIgdGV4dExlbmd0aD0iMTY4IiB4PSIxMTYyLjk4NSIgeT0iMTc1LjIzOTIiPlNldCBMZWFybmluZyBQcmVmZXJlbmNlczwvdGV4dD48L2c+PGcgaWQ9ImVsZW1fUmVjZWl2ZSBTdHVkeSBSZWNvbW1lbmRhdGlvbnMiPjxlbGxpcHNlIGN4PSI5OTIuNzg0OSIgY3k9IjE3MS40NTciIGZpbGw9IiNGMUYxRjEiIHJ4PSIxMTcuNzg0OSIgcnk9IjI1Ljk1NyIgc3R5bGU9InN0cm9rZTojMTgxODE4O3N0cm9rZS13aWR0aDowLjU7Ii8+PHRleHQgZmlsbD0iIzAwMDAwMCIgZm9udC1mYW1pbHk9InNhbnMtc2VyaWYiIGZvbnQtc2l6ZT0iMTQiIGxlbmd0aEFkanVzdD0ic3BhY2luZyIgdGV4dExlbmd0aD0iMjA1IiB4PSI4OTAuMjg0OSIgeT0iMTc1LjE5OTIiPlJlY2VpdmUgU3R1ZHkgUmVjb21tZW5kYXRpb25zPC90ZXh0PjwvZz48ZyBpZD0iZWxlbV9BY2Nlc3MgU3R1ZHkgUmVzb3VyY2VzIj48ZWxsaXBzZSBjeD0iNzQ2LjA2MjIiIGN5PSIxNzEuNzEyNCIgZmlsbD0iI0YxRjFGMSIgcng9Ijk0LjA2MjIiIHJ5PSIyMS4yMTI0IiBzdHlsZT0ic3Ryb2tlOiMxODE4MTg7c3Ryb2tlLXdpZHRoOjAuNTsiLz48dGV4dCBmaWxsPSIjMDAwMDAwIiBmb250LWZhbWlseT0ic2Fucy1zZXJpZiIgZm9udC1zaXplPSIxNCIgbGVuZ3RoQWRqdXN0PSJzcGFjaW5nIiB0ZXh0TGVuZ3RoPSIxNTQiIHg9IjY2OS4wNjIyIiB5PSIxNzUuNDU0NiI+QWNjZXNzIFN0dWR5IFJlc291cmNlczwvdGV4dD48L2c+PGcgaWQ9ImVsZW1fUmVjZWl2ZSBTdHVkeSBSZW1pbmRlcnMiPjxlbGxpcHNlIGN4PSI1MTkuMjIyMyIgY3k9IjE3MS40NDQ1IiBmaWxsPSIjRjFGMUYxIiByeD0iOTcuNzIyMyIgcnk9IjIxLjk0NDUiIHN0eWxlPSJzdHJva2U6IzE4MTgxODtzdHJva2Utd2lkdGg6MC41OyIvPjx0ZXh0IGZpbGw9IiMwMDAwMDAiIGZvbnQtZmFtaWx5PSJzYW5zLXNlcmlmIiBmb250LXNpemU9IjE0IiBsZW5ndGhBZGp1c3Q9InNwYWNpbmciIHRleHRMZW5ndGg9IjE2MiIgeD0iNDM4LjIyMjMiIHk9IjE3NS4xODY3Ij5SZWNlaXZlIFN0dWR5IFJlbWluZGVyczwvdGV4dD48L2c+PGcgaWQ9ImVsZW1fUGFydGljaXBhdGUgaW4gUXVpenplcyI+PGVsbGlwc2UgY3g9IjI5Mi4wNjIyIiBjeT0iMTcxLjcxMjQiIGZpbGw9IiNGMUYxRjEiIHJ4PSI5NC4wNjIyIiByeT0iMjEuMjEyNCIgc3R5bGU9InN0cm9rZTojMTgxODE4O3N0cm9rZS13aWR0aDowLjU7Ii8+PHRleHQgZmlsbD0iIzAwMDAwMCIgZm9udC1mYW1pbHk9InNhbnMtc2VyaWYiIGZvbnQtc2l6ZT0iMTQiIGxlbmd0aEFkanVzdD0ic3BhY2luZyIgdGV4dExlbmd0aD0iMTU0IiB4PSIyMTUuMDYyMiIgeT0iMTc1LjQ1NDYiPlBhcnRpY2lwYXRlIGluIFF1aXp6ZXM8L3RleHQ+PC9nPjxnIGlkPSJlbGVtX1RyYWNrIFByb2dyZXNzIj48ZWxsaXBzZSBjeD0iOTMuMDQ1NiIgY3k9IjE3MS4zMDkxIiBmaWxsPSIjRjFGMUYxIiByeD0iNjkuNTQ1NiIgcnk9IjE2LjMwOTEiIHN0eWxlPSJzdHJva2U6IzE4MTgxODtzdHJva2Utd2lkdGg6MC41OyIvPjx0ZXh0IGZpbGw9IiMwMDAwMDAiIGZvbnQtZmFtaWx5PSJzYW5zLXNlcmlmIiBmb250LXNpemU9IjE0IiBsZW5ndGhBZGp1c3Q9InNwYWNpbmciIHRleHRMZW5ndGg9Ijk4IiB4PSI0NC4wNDU2IiB5PSIxNzUuMDUxMyI+VHJhY2sgUHJvZ3Jlc3M8L3RleHQ+PC9nPjxnIGlkPSJlbGVtX0pvaW4gRGlzY3Vzc2lvbiBSb29tcyI+PGVsbGlwc2UgY3g9IjIzNTkuNzg5NSIgY3k9IjE3MS4yNTc5IiBmaWxsPSIjRjFGMUYxIiByeD0iOTEuNzg5NSIgcnk9IjIwLjc1NzkiIHN0eWxlPSJzdHJva2U6IzE4MTgxODtzdHJva2Utd2lkdGg6MC41OyIvPjx0ZXh0IGZpbGw9IiMwMDAwMDAiIGZvbnQtZmFtaWx5PSJzYW5zLXNlcmlmIiBmb250LXNpemU9IjE0IiBsZW5ndGhBZGp1c3Q9InNwYWNpbmciIHRleHRMZW5ndGg9IjE0OSIgeD0iMjI4NS4yODk1IiB5PSIxNzUuMDAwMSI+Sm9pbiBEaXNjdXNzaW9uIFJvb21zPC90ZXh0PjwvZz48ZyBpZD0iZWxlbV9DcmVhdGUvSm9pbiBTdHVkeSBHcm91cHMiPjxlbGxpcHNlIGN4PSIyMTMxLjk0NjgiIGN5PSIxNzEuNTg5NCIgZmlsbD0iI0YxRjFGMSIgcng9IjEwMC45NDY4IiByeT0iMjIuNTg5NCIgc3R5bGU9InN0cm9rZTojMTgxODE4O3N0cm9rZS13aWR0aDowLjU7Ii8+PHRleHQgZmlsbD0iIzAwMDAwMCIgZm9udC1mYW1pbHk9InNhbnMtc2VyaWYiIGZvbnQtc2l6ZT0iMTQiIGxlbmd0aEFkanVzdD0ic3BhY2luZyIgdGV4dExlbmd0aD0iMTY5IiB4PSIyMDQ3LjQ0NjgiIHk9IjE3NS4zMzE1Ij5DcmVhdGUvSm9pbiBTdHVkeSBHcm91cHM8L3RleHQ+PC9nPjxnIGlkPSJlbGVtX1NlbmQgTWVzc2FnZXMiPjxlbGxpcHNlIGN4PSIxOTI5LjE4MzQiIGN5PSIxNzEuNzM2NyIgZmlsbD0iI0YxRjFGMSIgcng9IjY2LjY4MzQiIHJ5PSIxNS43MzY3IiBzdHlsZT0ic3Ryb2tlOiMxODE4MTg7c3Ryb2tlLXdpZHRoOjAuNTsiLz48dGV4dCBmaWxsPSIjMDAwMDAwIiBmb250LWZhbWlseT0ic2Fucy1zZXJpZiIgZm9udC1zaXplPSIxNCIgbGVuZ3RoQWRqdXN0PSJzcGFjaW5nIiB0ZXh0TGVuZ3RoPSI5MSIgeD0iMTg4My42ODM0IiB5PSIxNzUuNDc4OSI+U2VuZCBNZXNzYWdlczwvdGV4dD48L2c+PGcgaWQ9ImVsZW1fUGFydGljaXBhdGUgaW4gVHV0b3JpbmcgU2Vzc2lvbnMiPjxlbGxpcHNlIGN4PSIxNjk5LjgwMzYiIGN5PSIxNzEuMjYwNyIgZmlsbD0iI0YxRjFGMSIgcng9IjEyNi44MDM2IiByeT0iMjcuNzYwNyIgc3R5bGU9InN0cm9rZTojMTgxODE4O3N0cm9rZS13aWR0aDowLjU7Ii8+PHRleHQgZmlsbD0iIzAwMDAwMCIgZm9udC1mYW1pbHk9InNhbnMtc2VyaWYiIGZvbnQtc2l6ZT0iMTQiIGxlbmd0aEFkanVzdD0ic3BhY2luZyIgdGV4dExlbmd0aD0iMjI0IiB4PSIxNTg3LjgwMzYiIHk9IjE3NS4wMDI5Ij5QYXJ0aWNpcGF0ZSBpbiBUdXRvcmluZyBTZXNzaW9uczwvdGV4dD48L2c+PGcgaWQ9ImVsZW1fQXR0ZW5kIEV2ZW50cyI+PGVsbGlwc2UgY3g9IjE0NzEuMTgzNCIgY3k9IjE3MS43MzY3IiBmaWxsPSIjRjFGMUYxIiByeD0iNjYuNjgzNCIgcnk9IjE1LjczNjciIHN0eWxlPSJzdHJva2U6IzE4MTgxODtzdHJva2Utd2lkdGg6MC41OyIvPjx0ZXh0IGZpbGw9IiMwMDAwMDAiIGZvbnQtZmFtaWx5PSJzYW5zLXNlcmlmIiBmb250LXNpemU9IjE0IiBsZW5ndGhBZGp1c3Q9InNwYWNpbmciIHRleHRMZW5ndGg9IjkxIiB4PSIxNDI1LjY4MzQiIHk9IjE3NS40Nzg5Ij5BdHRlbmQgRXZlbnRzPC90ZXh0PjwvZz48ZyBpZD0iZWxlbV9BY2Nlc3MgTWVudGFsIEhlYWx0aCBSZXNvdXJjZXMiPjxlbGxpcHNlIGN4PSIzMTg4LjE1MDkiIGN5PSIxNzEuNDMwMiIgZmlsbD0iI0YxRjFGMSIgcng9IjEyMC4xNTA5IiByeT0iMjYuNDMwMiIgc3R5bGU9InN0cm9rZTojMTgxODE4O3N0cm9rZS13aWR0aDowLjU7Ii8+PHRleHQgZmlsbD0iIzAwMDAwMCIgZm9udC1mYW1pbHk9InNhbnMtc2VyaWYiIGZvbnQtc2l6ZT0iMTQiIGxlbmd0aEFkanVzdD0ic3BhY2luZyIgdGV4dExlbmd0aD0iMjEwIiB4PSIzMDgzLjE1MDkiIHk9IjE3NS4xNzI0Ij5BY2Nlc3MgTWVudGFsIEhlYWx0aCBSZXNvdXJjZXM8L3RleHQ+PC9nPjxnIGlkPSJlbGVtX1NldCBXZWxsLWJlaW5nIFJlbWluZGVycyI+PGVsbGlwc2UgY3g9IjI5MzEuOTQ2OCIgY3k9IjE3MS41ODk0IiBmaWxsPSIjRjFGMUYxIiByeD0iMTAwLjk0NjgiIHJ5PSIyMi41ODk0IiBzdHlsZT0ic3Ryb2tlOiMxODE4MTg7c3Ryb2tlLXdpZHRoOjAuNTsiLz48dGV4dCBmaWxsPSIjMDAwMDAwIiBmb250LWZhbWlseT0ic2Fucy1zZXJpZiIgZm9udC1zaXplPSIxNCIgbGVuZ3RoQWRqdXN0PSJzcGFjaW5nIiB0ZXh0TGVuZ3RoPSIxNjkiIHg9IjI4NDcuNDQ2OCIgeT0iMTc1LjMzMTUiPlNldCBXZWxsLWJlaW5nIFJlbWluZGVyczwvdGV4dD48L2c+PGcgaWQ9ImVsZW1fUGFydGljaXBhdGUgaW4gV2VsbC1iZWluZyBEaXNjdXNzaW9ucyI+PGVsbGlwc2UgY3g9IjI2NTIuMDgzIiBjeT0iMTcxLjYxNjYiIGZpbGw9IiNGMUYxRjEiIHJ4PSIxNDMuNTgzIiByeT0iMzEuMTE2NiIgc3R5bGU9InN0cm9rZTojMTgxODE4O3N0cm9rZS13aWR0aDowLjU7Ii8+PHRleHQgZmlsbD0iIzAwMDAwMCIgZm9udC1mYW1pbHk9InNhbnMtc2VyaWYiIGZvbnQtc2l6ZT0iMTQiIGxlbmd0aEFkanVzdD0ic3BhY2luZyIgdGV4dExlbmd0aD0iMjU5IiB4PSIyNTIyLjU4MyIgeT0iMTc1LjM1ODgiPlBhcnRpY2lwYXRlIGluIFdlbGwtYmVpbmcgRGlzY3Vzc2lvbnM8L3RleHQ+PC9nPjxnIGlkPSJlbGVtX1VwbG9hZCBTdHVkeSBNYXRlcmlhbHMiPjxlbGxpcHNlIGN4PSIzNjgxLjA2MjIiIGN5PSIxNzEuNzEyNCIgZmlsbD0iI0YxRjFGMSIgcng9Ijk0LjA2MjIiIHJ5PSIyMS4yMTI0IiBzdHlsZT0ic3Ryb2tlOiMxODE4MTg7c3Ryb2tlLXdpZHRoOjAuNTsiLz48dGV4dCBmaWxsPSIjMDAwMDAwIiBmb250LWZhbWlseT0ic2Fucy1zZXJpZiIgZm9udC1zaXplPSIxNCIgbGVuZ3RoQWRqdXN0PSJzcGFjaW5nIiB0ZXh0TGVuZ3RoPSIxNTQiIHg9IjM2MDQuMDYyMiIgeT0iMTc1LjQ1NDYiPlVwbG9hZCBTdHVkeSBNYXRlcmlhbHM8L3RleHQ+PC9nPjxnIGlkPSJlbGVtX01hbmFnZSBEaXNjdXNzaW9uIFJvb21zIj48ZWxsaXBzZSBjeD0iMzkwOC4yMjIzIiBjeT0iMTcxLjQ0NDUiIGZpbGw9IiNGMUYxRjEiIHJ4PSI5Ny43MjIzIiByeT0iMjEuOTQ0NSIgc3R5bGU9InN0cm9rZTojMTgxODE4O3N0cm9rZS13aWR0aDowLjU7Ii8+PHRleHQgZmlsbD0iIzAwMDAwMCIgZm9udC1mYW1pbHk9InNhbnMtc2VyaWYiIGZvbnQtc2l6ZT0iMTQiIGxlbmd0aEFkanVzdD0ic3BhY2luZyIgdGV4dExlbmd0aD0iMTYyIiB4PSIzODI3LjIyMjMiIHk9IjE3NS4xODY3Ij5NYW5hZ2UgRGlzY3Vzc2lvbiBSb29tczwvdGV4dD48L2c+PGcgaWQ9ImVsZW1fSG9zdCBUdXRvcmluZyBTZXNzaW9ucyI+PGVsbGlwc2UgY3g9IjM0NTguMDYyMiIgY3k9IjE3MS43MTI0IiBmaWxsPSIjRjFGMUYxIiByeD0iOTQuMDYyMiIgcnk9IjIxLjIxMjQiIHN0eWxlPSJzdHJva2U6IzE4MTgxODtzdHJva2Utd2lkdGg6MC41OyIvPjx0ZXh0IGZpbGw9IiMwMDAwMDAiIGZvbnQtZmFtaWx5PSJzYW5zLXNlcmlmIiBmb250LXNpemU9IjE0IiBsZW5ndGhBZGp1c3Q9InNwYWNpbmciIHRleHRMZW5ndGg9IjE1NCIgeD0iMzM4MS4wNjIyIiB5PSIxNzUuNDU0NiI+SG9zdCBUdXRvcmluZyBTZXNzaW9uczwvdGV4dD48L2c+PGcgaWQ9ImVsZW1fQW5hbHl6ZSBMZWFybmluZyBEYXRhIj48ZWxsaXBzZSBjeD0iNDY3Ni44ODM5IiBjeT0iMTcxLjU3NjgiIGZpbGw9IiNGMUYxRjEiIHJ4PSI5MC44ODM5IiByeT0iMjAuNTc2OCIgc3R5bGU9InN0cm9rZTojMTgxODE4O3N0cm9rZS13aWR0aDowLjU7Ii8+PHRleHQgZmlsbD0iIzAwMDAwMCIgZm9udC1mYW1pbHk9InNhbnMtc2VyaWYiIGZvbnQtc2l6ZT0iMTQiIGxlbmd0aEFkanVzdD0ic3BhY2luZyIgdGV4dExlbmd0aD0iMTQ3IiB4PSI0NjAzLjM4MzkiIHk9IjE3NS4zMTkiPkFuYWx5emUgTGVhcm5pbmcgRGF0YTwvdGV4dD48L2c+PGcgaWQ9ImVsZW1fU2VuZCBQZXJzb25hbGl6ZWQgTm90aWZpY2F0aW9ucyI+PGVsbGlwc2UgY3g9IjQ0MjYuOTcyMyIgY3k9IjE3MS41OTQ1IiBmaWxsPSIjRjFGMUYxIiByeD0iMTIzLjQ3MjMiIHJ5PSIyNy4wOTQ1IiBzdHlsZT0ic3Ryb2tlOiMxODE4MTg7c3Ryb2tlLXdpZHRoOjAuNTsiLz48dGV4dCBmaWxsPSIjMDAwMDAwIiBmb250LWZhbWlseT0ic2Fucy1zZXJpZiIgZm9udC1zaXplPSIxNCIgbGVuZ3RoQWRqdXN0PSJzcGFjaW5nIiB0ZXh0TGVuZ3RoPSIyMTciIHg9IjQzMTguNDcyMyIgeT0iMTc1LjMzNjYiPlNlbmQgUGVyc29uYWxpemVkIE5vdGlmaWNhdGlvbnM8L3RleHQ+PC9nPjxnIGlkPSJlbGVtX1Byb3ZpZGUgU3R1ZHkgU3VnZ2VzdGlvbnMiPjxlbGxpcHNlIGN4PSI0MTY1LjIyNTIiIGN5PSIxNzEuNjQ1IiBmaWxsPSIjRjFGMUYxIiByeD0iMTAzLjcyNTIiIHJ5PSIyMy4xNDUiIHN0eWxlPSJzdHJva2U6IzE4MTgxODtzdHJva2Utd2lkdGg6MC41OyIvPjx0ZXh0IGZpbGw9IiMwMDAwMDAiIGZvbnQtZmFtaWx5PSJzYW5zLXNlcmlmIiBmb250LXNpemU9IjE0IiBsZW5ndGhBZGp1c3Q9InNwYWNpbmciIHRleHRMZW5ndGg9IjE3NSIgeD0iNDA3Ny43MjUyIiB5PSIxNzUuMzg3MiI+UHJvdmlkZSBTdHVkeSBTdWdnZXN0aW9uczwvdGV4dD48L2c+PGcgaWQ9ImVsZW1fTWFuYWdlIFVzZXIgRGF0YSBDb25zZW50Ij48ZWxsaXBzZSBjeD0iNTQwNS45ODUiIGN5PSIxNzEuNDk3IiBmaWxsPSIjRjFGMUYxIiByeD0iMTAwLjQ4NSIgcnk9IjIyLjQ5NyIgc3R5bGU9InN0cm9rZTojMTgxODE4O3N0cm9rZS13aWR0aDowLjU7Ii8+PHRleHQgZmlsbD0iIzAwMDAwMCIgZm9udC1mYW1pbHk9InNhbnMtc2VyaWYiIGZvbnQtc2l6ZT0iMTQiIGxlbmd0aEFkanVzdD0ic3BhY2luZyIgdGV4dExlbmd0aD0iMTY4IiB4PSI1MzIxLjk4NSIgeT0iMTc1LjIzOTIiPk1hbmFnZSBVc2VyIERhdGEgQ29uc2VudDwvdGV4dD48L2c+PGcgaWQ9ImVsZW1fSGFuZGxlIFByaXZhY3kgU2V0dGluZ3MiPjxlbGxpcHNlIGN4PSI1MTcyLjc2MzMiIGN5PSIxNzEuMzUyNyIgZmlsbD0iI0YxRjFGMSIgcng9Ijk3LjI2MzMiIHJ5PSIyMS44NTI3IiBzdHlsZT0ic3Ryb2tlOiMxODE4MTg7c3Ryb2tlLXdpZHRoOjAuNTsiLz48dGV4dCBmaWxsPSIjMDAwMDAwIiBmb250LWZhbWlseT0ic2Fucy1zZXJpZiIgZm9udC1zaXplPSIxNCIgbGVuZ3RoQWRqdXN0PSJzcGFjaW5nIiB0ZXh0TGVuZ3RoPSIxNjEiIHg9IjUwOTIuMjYzMyIgeT0iMTc1LjA5NDgiPkhhbmRsZSBQcml2YWN5IFNldHRpbmdzPC90ZXh0PjwvZz48ZyBpZD0iZWxlbV9Db21wbHkgd2l0aCBHRFBSIFN0YW5kYXJkcyI+PGVsbGlwc2UgY3g9IjQ5MzEuOTE1OCIgY3k9IjE3MS40ODMyIiBmaWxsPSIjRjFGMUYxIiByeD0iMTA3LjkxNTgiIHJ5PSIyMy45ODMyIiBzdHlsZT0ic3Ryb2tlOiMxODE4MTg7c3Ryb2tlLXdpZHRoOjAuNTsiLz48dGV4dCBmaWxsPSIjMDAwMDAwIiBmb250LWZhbWlseT0ic2Fucy1zZXJpZiIgZm9udC1zaXplPSIxNCIgbGVuZ3RoQWRqdXN0PSJzcGFjaW5nIiB0ZXh0TGVuZ3RoPSIxODQiIHg9IjQ4MzkuOTE1OCIgeT0iMTc1LjIyNTMiPkNvbXBseSB3aXRoIEdEUFIgU3RhbmRhcmRzPC90ZXh0PjwvZz48IS0tZW50aXR5IFN0dWRlbnQtLT48ZyBpZD0iZWxlbV9TdHVkZW50Ij48ZWxsaXBzZSBjeD0iMTU4NiIgY3k9IjE0IiBmaWxsPSIjRjFGMUYxIiByeD0iOCIgcnk9IjgiIHN0eWxlPSJzdHJva2U6IzE4MTgxODtzdHJva2Utd2lkdGg6MC41OyIvPjxwYXRoIGQ9Ik0xNTg2LDIyIEwxNTg2LDQ5IE0xNTczLDMwIEwxNTk5LDMwIE0xNTg2LDQ5IEwxNTczLDY0IE0xNTg2LDQ5IEwxNTk5LDY0ICIgZmlsbD0ibm9uZSIgc3R5bGU9InN0cm9rZTojMTgxODE4O3N0cm9rZS13aWR0aDowLjU7Ii8+PHRleHQgZmlsbD0iIzAwMDAwMCIgZm9udC1mYW1pbHk9InNhbnMtc2VyaWYiIGZvbnQtc2l6ZT0iMTQiIGxlbmd0aEFkanVzdD0ic3BhY2luZyIgdGV4dExlbmd0aD0iODQiIHg9IjE1NDQiIHk9Ijc4LjczNDQiPlN0dWRlbnQvVXNlcjwvdGV4dD48L2c+PCEtLWVudGl0eSBJbnN0cnVjdG9yLS0+PGcgaWQ9ImVsZW1fSW5zdHJ1Y3RvciI+PGVsbGlwc2UgY3g9IjM1NjkiIGN5PSIxNCIgZmlsbD0iI0YxRjFGMSIgcng9IjgiIHJ5PSI4IiBzdHlsZT0ic3Ryb2tlOiMxODE4MTg7c3Ryb2tlLXdpZHRoOjAuNTsiLz48cGF0aCBkPSJNMzU2OSwyMiBMMzU2OSw0OSBNMzU1NiwzMCBMMzU4MiwzMCBNMzU2OSw0OSBMMzU1Niw2NCBNMzU2OSw0OSBMMzU4Miw2NCAiIGZpbGw9Im5vbmUiIHN0eWxlPSJzdHJva2U6IzE4MTgxODtzdHJva2Utd2lkdGg6MC41OyIvPjx0ZXh0IGZpbGw9IiMwMDAwMDAiIGZvbnQtZmFtaWx5PSJzYW5zLXNlcmlmIiBmb250LXNpemU9IjE0IiBsZW5ndGhBZGp1c3Q9InNwYWNpbmciIHRleHRMZW5ndGg9IjcwIiB4PSIzNTM0IiB5PSI3OC43MzQ0Ij5JbnN0cnVjdG9yPC90ZXh0PjwvZz48IS0tZW50aXR5IEFkbWluLS0+PGcgaWQ9ImVsZW1fQWRtaW4iPjxlbGxpcHNlIGN4PSIzOTA4IiBjeT0iMTQiIGZpbGw9IiNGMUYxRjEiIHJ4PSI4IiByeT0iOCIgc3R5bGU9InN0cm9rZTojMTgxODE4O3N0cm9rZS13aWR0aDowLjU7Ii8+PHBhdGggZD0iTTM5MDgsMjIgTDM5MDgsNDkgTTM4OTUsMzAgTDM5MjEsMzAgTTM5MDgsNDkgTDM4OTUsNjQgTTM5MDgsNDkgTDM5MjEsNjQgIiBmaWxsPSJub25lIiBzdHlsZT0ic3Ryb2tlOiMxODE4MTg7c3Ryb2tlLXdpZHRoOjAuNTsiLz48dGV4dCBmaWxsPSIjMDAwMDAwIiBmb250LWZhbWlseT0ic2Fucy1zZXJpZiIgZm9udC1zaXplPSIxNCIgbGVuZ3RoQWRqdXN0PSJzcGFjaW5nIiB0ZXh0TGVuZ3RoPSIxMDYiIHg9IjM4NTUiIHk9Ijc4LjczNDQiPkFkbWluL01vZGVyYXRvcjwvdGV4dD48L2c+PCEtLWVudGl0eSBBSS0tPjxnIGlkPSJlbGVtX0FJIj48ZWxsaXBzZSBjeD0iNDQyNyIgY3k9IjE0IiBmaWxsPSIjRjFGMUYxIiByeD0iOCIgcnk9IjgiIHN0eWxlPSJzdHJva2U6IzE4MTgxODtzdHJva2Utd2lkdGg6MC41OyIvPjxwYXRoIGQ9Ik00NDI3LDIyIEw0NDI3LDQ5IE00NDE0LDMwIEw0NDQwLDMwIE00NDI3LDQ5IEw0NDE0LDY0IE00NDI3LDQ5IEw0NDQwLDY0ICIgZmlsbD0ibm9uZSIgc3R5bGU9InN0cm9rZTojMTgxODE4O3N0cm9rZS13aWR0aDowLjU7Ii8+PHRleHQgZmlsbD0iIzAwMDAwMCIgZm9udC1mYW1pbHk9InNhbnMtc2VyaWYiIGZvbnQtc2l6ZT0iMTQiIGxlbmd0aEFkanVzdD0ic3BhY2luZyIgdGV4dExlbmd0aD0iNjQiIHg9IjQzOTUiIHk9Ijc4LjczNDQiPkFJIFN5c3RlbTwvdGV4dD48L2c+PCEtLWVudGl0eSBQcml2YWN5U3lzdGVtLS0+PGcgaWQ9ImVsZW1fUHJpdmFjeVN5c3RlbSI+PGVsbGlwc2UgY3g9IjUxNzMiIGN5PSIxNCIgZmlsbD0iI0YxRjFGMSIgcng9IjgiIHJ5PSI4IiBzdHlsZT0ic3Ryb2tlOiMxODE4MTg7c3Ryb2tlLXdpZHRoOjAuNTsiLz48cGF0aCBkPSJNNTE3MywyMiBMNTE3Myw0OSBNNTE2MCwzMCBMNTE4NiwzMCBNNTE3Myw0OSBMNTE2MCw2NCBNNTE3Myw0OSBMNTE4Niw2NCAiIGZpbGw9Im5vbmUiIHN0eWxlPSJzdHJva2U6IzE4MTgxODtzdHJva2Utd2lkdGg6MC41OyIvPjx0ZXh0IGZpbGw9IiMwMDAwMDAiIGZvbnQtZmFtaWx5PSJzYW5zLXNlcmlmIiBmb250LXNpemU9IjE0IiBsZW5ndGhBZGp1c3Q9InNwYWNpbmciIHRleHRMZW5ndGg9IjEzNCIgeD0iNTEwNiIgeT0iNzguNzM0NCI+RGF0YSBQcml2YWN5IFN5c3RlbTwvdGV4dD48L2c+PCEtLWxpbmsgU3R1ZGVudCB0byBTZXQgTGVhcm5pbmcgUHJlZmVyZW5jZXMtLT48ZyBpZD0ibGlua19TdHVkZW50X1NldCBMZWFybmluZyBQcmVmZXJlbmNlcyI+PHBhdGggZD0iTTE1NDMuOSw1My4zIEMxNTAzLjI5LDYyLjg1IDE0NDAuNDIsNzkuMTcgMTM4OCw5OS41IEMxMzUwLjgyLDExMy45MiAxMzE1LjYwNjUsMTMxLjk4NyAxMjg3LjYwNjUsMTQ3LjM5NyAiIGZpbGw9Im5vbmUiIGlkPSJTdHVkZW50LXRvLVNldCBMZWFybmluZyBQcmVmZXJlbmNlcyIgc3R5bGU9InN0cm9rZTojMTgxODE4O3N0cm9rZS13aWR0aDoxLjA7Ii8+PHBvbHlnb24gZmlsbD0iIzE4MTgxOCIgcG9pbnRzPSIxMjgyLjM1LDE1MC4yOSwxMjkyLjE2MzQsMTQ5LjQ1NDksMTI4Ni43MzA0LDE0Ny44NzkyLDEyODguMzA2MSwxNDIuNDQ2MiwxMjgyLjM1LDE1MC4yOSIgc3R5bGU9InN0cm9rZTojMTgxODE4O3N0cm9rZS13aWR0aDoxLjA7Ii8+PC9nPjwhLS1saW5rIFN0dWRlbnQgdG8gUmVjZWl2ZSBTdHVkeSBSZWNvbW1lbmRhdGlvbnMtLT48ZyBpZD0ibGlua19TdHVkZW50X1JlY2VpdmUgU3R1ZHkgUmVjb21tZW5kYXRpb25zIj48cGF0aCBkPSJNMTU0My45OSw0NC4xMSBDMTQ2Mi4yMSw0NS40IDEyNzYuNyw1My42NSAxMTI5LDk5LjUgQzEwOTMuNTEsMTEwLjUyIDEwNjEuNDU2LDEyNy41MDgyIDEwMzQuOTQ2LDE0My41MTgyICIgZmlsbD0ibm9uZSIgaWQ9IlN0dWRlbnQtdG8tUmVjZWl2ZSBTdHVkeSBSZWNvbW1lbmRhdGlvbnMiIHN0eWxlPSJzdHJva2U6IzE4MTgxODtzdHJva2Utd2lkdGg6MS4wOyIvPjxwb2x5Z29uIGZpbGw9IiMxODE4MTgiIHBvaW50cz0iMTAyOS44MSwxNDYuNjIsMTAzOS41ODE5LDE0NS4zOTE0LDEwMzQuMDksMTQ0LjAzNTIsMTAzNS40NDYyLDEzOC41NDMzLDEwMjkuODEsMTQ2LjYyIiBzdHlsZT0ic3Ryb2tlOiMxODE4MTg7c3Ryb2tlLXdpZHRoOjEuMDsiLz48L2c+PCEtLWxpbmsgU3R1ZGVudCB0byBBY2Nlc3MgU3R1ZHkgUmVzb3VyY2VzLS0+PGcgaWQ9ImxpbmtfU3R1ZGVudF9BY2Nlc3MgU3R1ZHkgUmVzb3VyY2VzIj48cGF0aCBkPSJNMTU0My41Niw0NC41NSBDMTQwNy45Nyw0Ni43MiA5ODYuNTcsNTYuODIgODU4LDk5LjUgQzgyNC4zNSwxMTAuNjcgNzk1LjM3OTEsMTMwLjM5NDUgNzczLjg2OTEsMTQ3LjI4NDUgIiBmaWxsPSJub25lIiBpZD0iU3R1ZGVudC10by1BY2Nlc3MgU3R1ZHkgUmVzb3VyY2VzIiBzdHlsZT0ic3Ryb2tlOiMxODE4MTg7c3Ryb2tlLXdpZHRoOjEuMDsiLz48cG9seWdvbiBmaWxsPSIjMTgxODE4IiBwb2ludHM9Ijc2OS4xNSwxNTAuOTksNzc4LjY5ODksMTQ4LjU3NzgsNzczLjA4MjUsMTQ3LjkwMjEsNzczLjc1ODMsMTQyLjI4NTgsNzY5LjE1LDE1MC45OSIgc3R5bGU9InN0cm9rZTojMTgxODE4O3N0cm9rZS13aWR0aDoxLjA7Ii8+PC9nPjwhLS1saW5rIFN0dWRlbnQgdG8gUmVjZWl2ZSBTdHVkeSBSZW1pbmRlcnMtLT48ZyBpZD0ibGlua19TdHVkZW50X1JlY2VpdmUgU3R1ZHkgUmVtaW5kZXJzIj48cGF0aCBkPSJNMTU0My44LDQzLjc1IEMxMzgyLjg4LDQzLjIyIDgwOC4xLDQ1LjI0IDYzNSw5OS41IEM2MDAuNzUsMTEwLjI0IDU3MS4wNjM1LDEyOS42MjgxIDU0OC43MDM1LDE0Ni41NTgxICIgZmlsbD0ibm9uZSIgaWQ9IlN0dWRlbnQtdG8tUmVjZWl2ZSBTdHVkeSBSZW1pbmRlcnMiIHN0eWxlPSJzdHJva2U6IzE4MTgxODtzdHJva2Utd2lkdGg6MS4wOyIvPjxwb2x5Z29uIGZpbGw9IiMxODE4MTgiIHBvaW50cz0iNTQzLjkyLDE1MC4xOCw1NTMuNTA5OSwxNDcuOTM2Miw1NDcuOTA2MywxNDcuMTYxOCw1NDguNjgwNywxNDEuNTU4Miw1NDMuOTIsMTUwLjE4IiBzdHlsZT0ic3Ryb2tlOiMxODE4MTg7c3Ryb2tlLXdpZHRoOjEuMDsiLz48L2c+PCEtLWxpbmsgU3R1ZGVudCB0byBQYXJ0aWNpcGF0ZSBpbiBRdWl6emVzLS0+PGcgaWQ9ImxpbmtfU3R1ZGVudF9QYXJ0aWNpcGF0ZSBpbiBRdWl6emVzIj48cGF0aCBkPSJNMTU0My43MSw0NC43IEMxMzQ1LjYsNDguMTYgNTE0LjMxLDY0LjY1IDQwNCw5OS41IEMzNjkuOTcsMTEwLjI1IDM0MC43ODQsMTMwLjI3MjggMzE5LjM0NCwxNDcuMzQyOCAiIGZpbGw9Im5vbmUiIGlkPSJTdHVkZW50LXRvLVBhcnRpY2lwYXRlIGluIFF1aXp6ZXMiIHN0eWxlPSJzdHJva2U6IzE4MTgxODtzdHJva2Utd2lkdGg6MS4wOyIvPjxwb2x5Z29uIGZpbGw9IiMxODE4MTgiIHBvaW50cz0iMzE0LjY1LDE1MS4wOCwzMjQuMTgyNCwxNDguNjAzNSwzMTguNTYxNiwxNDcuOTY1NywzMTkuMTk5NSwxNDIuMzQ0OSwzMTQuNjUsMTUxLjA4IiBzdHlsZT0ic3Ryb2tlOiMxODE4MTg7c3Ryb2tlLXdpZHRoOjEuMDsiLz48L2c+PCEtLWxpbmsgU3R1ZGVudCB0byBUcmFjayBQcm9ncmVzcy0tPjxnIGlkPSJsaW5rX1N0dWRlbnRfVHJhY2sgUHJvZ3Jlc3MiPjxwYXRoIGQ9Ik0xNTQzLjg5LDQ0LjA4IEMxMzIzLjc0LDQ0LjY5IDMxMC4yMiw1MC4xOSAxODAsOTkuNSBDMTQ5LjM3LDExMS4xIDEyNS41MDA0LDEzMy42MDUyIDEwOS45NDA0LDE1MC43NjUyICIgZmlsbD0ibm9uZSIgaWQ9IlN0dWRlbnQtdG8tVHJhY2sgUHJvZ3Jlc3MiIHN0eWxlPSJzdHJva2U6IzE4MTgxODtzdHJva2Utd2lkdGg6MS4wOyIvPjxwb2x5Z29uIGZpbGw9IiMxODE4MTgiIHBvaW50cz0iMTA1LjkxLDE1NS4yMSwxMTQuOTE4NywxNTEuMjI5NywxMDkuMjY4NiwxNTEuNTA2LDEwOC45OTIzLDE0NS44NTU5LDEwNS45MSwxNTUuMjEiIHN0eWxlPSJzdHJva2U6IzE4MTgxODtzdHJva2Utd2lkdGg6MS4wOyIvPjwvZz48IS0tbGluayBTdHVkZW50IHRvIEpvaW4gRGlzY3Vzc2lvbiBSb29tcy0tPjxnIGlkPSJsaW5rX1N0dWRlbnRfSm9pbiBEaXNjdXNzaW9uIFJvb21zIj48cGF0aCBkPSJNMTYyOC4zNCw0NC44NCBDMTc1NS45MSw0Ny43OCAyMTM0Ljk3LDU5LjcyIDIyNTEsOTkuNSBDMjI4My45LDExMC43OCAyMzExLjk5MSwxMzAuNDExNyAyMzMyLjg4MSwxNDcuMjcxNyAiIGZpbGw9Im5vbmUiIGlkPSJTdHVkZW50LXRvLUpvaW4gRGlzY3Vzc2lvbiBSb29tcyIgc3R5bGU9InN0cm9rZTojMTgxODE4O3N0cm9rZS13aWR0aDoxLjA7Ii8+PHBvbHlnb24gZmlsbD0iIzE4MTgxOCIgcG9pbnRzPSIyMzM3LjU1LDE1MS4wNCwyMzMzLjA1ODcsMTQyLjI3NDksMjMzMy42NTkxLDE0Ny44OTk3LDIzMjguMDM0MiwxNDguNTAwMiwyMzM3LjU1LDE1MS4wNCIgc3R5bGU9InN0cm9rZTojMTgxODE4O3N0cm9rZS13aWR0aDoxLjA7Ii8+PC9nPjwhLS1saW5rIFN0dWRlbnQgdG8gQ3JlYXRlL0pvaW4gU3R1ZHkgR3JvdXBzLS0+PGcgaWQ9ImxpbmtfU3R1ZGVudF9DcmVhdGUvSm9pbiBTdHVkeSBHcm91cHMiPjxwYXRoIGQ9Ik0xNjI4LjIxLDQzLjg3IEMxNzA2LjM1LDQ0Ljg0IDE4NzcuOTEsNTIuNjkgMjAxMyw5OS41IEMyMDQ2Ljg3LDExMS4yNCAyMDc2Ljc0MDUsMTI5Ljg4MjYgMjA5OS44NzA1LDE0Ni4zMzI2ICIgZmlsbD0ibm9uZSIgaWQ9IlN0dWRlbnQtdG8tQ3JlYXRlL0pvaW4gU3R1ZHkgR3JvdXBzIiBzdHlsZT0ic3Ryb2tlOiMxODE4MTg7c3Ryb2tlLXdpZHRoOjEuMDsiLz48cG9seWdvbiBmaWxsPSIjMTgxODE4IiBwb2ludHM9IjIxMDQuNzYsMTQ5LjgxLDIwOTkuNzQ0LDE0MS4zMzQyLDIxMDAuNjg1NCwxNDYuOTEyMSwyMDk1LjEwNzQsMTQ3Ljg1MzYsMjEwNC43NiwxNDkuODEiIHN0eWxlPSJzdHJva2U6IzE4MTgxODtzdHJva2Utd2lkdGg6MS4wOyIvPjwvZz48IS0tbGluayBTdHVkZW50IHRvIFNlbmQgTWVzc2FnZXMtLT48ZyBpZD0ibGlua19TdHVkZW50X1NlbmQgTWVzc2FnZXMiPjxwYXRoIGQ9Ik0xNjI4LjQyLDQ2Ljc1IEMxNjgxLjQ5LDUxLjU3IDE3NzQsNjQuNjQgMTg0NSw5OS41IEMxODczLjgsMTEzLjY0IDE4OTYuODY3OSwxMzUuNDIxNCAxOTEyLjE0NzksMTUxLjczMTQgIiBmaWxsPSJub25lIiBpZD0iU3R1ZGVudC10by1TZW5kIE1lc3NhZ2VzIiBzdHlsZT0ic3Ryb2tlOiMxODE4MTg7c3Ryb2tlLXdpZHRoOjEuMDsiLz48cG9seWdvbiBmaWxsPSIjMTgxODE4IiBwb2ludHM9IjE5MTYuMjUsMTU2LjExLDE5MTMuMDE1OSwxNDYuODA3MywxOTEyLjgzMTYsMTUyLjQ2MTEsMTkwNy4xNzc3LDE1Mi4yNzY4LDE5MTYuMjUsMTU2LjExIiBzdHlsZT0ic3Ryb2tlOiMxODE4MTg7c3Ryb2tlLXdpZHRoOjEuMDsiLz48L2c+PCEtLWxpbmsgU3R1ZGVudCB0byBQYXJ0aWNpcGF0ZSBpbiBUdXRvcmluZyBTZXNzaW9ucy0tPjxnIGlkPSJsaW5rX1N0dWRlbnRfUGFydGljaXBhdGUgaW4gVHV0b3JpbmcgU2Vzc2lvbnMiPjxwYXRoIGQ9Ik0xNjE4Ljk3LDgwLjU5IEMxNjM3LjEyLDEwMC43MyAxNjU1LjIzNDEsMTIwLjgyMjIgMTY3MS43NzQxLDEzOS4xODIyICIgZmlsbD0ibm9uZSIgaWQ9IlN0dWRlbnQtdG8tUGFydGljaXBhdGUgaW4gVHV0b3JpbmcgU2Vzc2lvbnMiIHN0eWxlPSJzdHJva2U6IzE4MTgxODtzdHJva2Utd2lkdGg6MS4wOyIvPjxwb2x5Z29uIGZpbGw9IiMxODE4MTgiIHBvaW50cz0iMTY3NS43OSwxNDMuNjQsMTY3Mi43MzgsMTM0LjI3NiwxNjcyLjQ0MzQsMTM5LjkyNTEsMTY2Ni43OTQyLDEzOS42MzA1LDE2NzUuNzksMTQzLjY0IiBzdHlsZT0ic3Ryb2tlOiMxODE4MTg7c3Ryb2tlLXdpZHRoOjEuMDsiLz48L2c+PCEtLWxpbmsgU3R1ZGVudCB0byBBdHRlbmQgRXZlbnRzLS0+PGcgaWQ9ImxpbmtfU3R1ZGVudF9BdHRlbmQgRXZlbnRzIj48cGF0aCBkPSJNMTU1Mi43NCw4MC41OSBDMTUyOS43OSwxMDUuODQgMTUwNC41NjU2LDEzMy41Nzk5IDE0ODguMDA1NiwxNTEuNzk5OSAiIGZpbGw9Im5vbmUiIGlkPSJTdHVkZW50LXRvLUF0dGVuZCBFdmVudHMiIHN0eWxlPSJzdHJva2U6IzE4MTgxODtzdHJva2Utd2lkdGg6MS4wOyIvPjxwb2x5Z29uIGZpbGw9IiMxODE4MTgiIHBvaW50cz0iMTQ4My45NywxNTYuMjQsMTQ5Mi45ODM0LDE1Mi4yNzAyLDE0ODcuMzMzLDE1Mi41Mzk5LDE0ODcuMDYzMywxNDYuODg5NSwxNDgzLjk3LDE1Ni4yNCIgc3R5bGU9InN0cm9rZTojMTgxODE4O3N0cm9rZS13aWR0aDoxLjA7Ii8+PC9nPjwhLS1saW5rIFN0dWRlbnQgdG8gQWNjZXNzIE1lbnRhbCBIZWFsdGggUmVzb3VyY2VzLS0+PGcgaWQ9ImxpbmtfU3R1ZGVudF9BY2Nlc3MgTWVudGFsIEhlYWx0aCBSZXNvdXJjZXMiPjxwYXRoIGQ9Ik0xNjI4LjIyLDQ0LjUgQzE4NTMuNjQsNDcuMzEgMjkxMC40Miw2Mi40IDMwNTEsOTkuNSBDMzA4Ny4zOSwxMDkuMSAzMTE5Ljk5OTcsMTI2LjM4OTggMzE0Ni42Mjk3LDE0Mi44ODk4ICIgZmlsbD0ibm9uZSIgaWQ9IlN0dWRlbnQtdG8tQWNjZXNzIE1lbnRhbCBIZWFsdGggUmVzb3VyY2VzIiBzdHlsZT0ic3Ryb2tlOiMxODE4MTg7c3Ryb2tlLXdpZHRoOjEuMDsiLz48cG9seWdvbiBmaWxsPSIjMTgxODE4IiBwb2ludHM9IjMxNTEuNzMsMTQ2LjA1LDMxNDYuMTg2MywxMzcuOTA5NSwzMTQ3LjQ3OTcsMTQzLjQxNjUsMzE0MS45NzI3LDE0NC43MSwzMTUxLjczLDE0Ni4wNSIgc3R5bGU9InN0cm9rZTojMTgxODE4O3N0cm9rZS13aWR0aDoxLjA7Ii8+PC9nPjwhLS1saW5rIFN0dWRlbnQgdG8gU2V0IFdlbGwtYmVpbmcgUmVtaW5kZXJzLS0+PGcgaWQ9ImxpbmtfU3R1ZGVudF9TZXQgV2VsbC1iZWluZyBSZW1pbmRlcnMiPjxwYXRoIGQ9Ik0xNjI4LjE4LDQ0LjY5IEMxODMwLjY0LDQ4LjE1IDI2OTcuNjcsNjQuODkgMjgxMyw5OS41IEMyODQ3Ljc5LDEwOS45NCAyODc4LjExMzQsMTI5LjIwNTcgMjkwMS4wOTM0LDE0Ni4xNzU3ICIgZmlsbD0ibm9uZSIgaWQ9IlN0dWRlbnQtdG8tU2V0IFdlbGwtYmVpbmcgUmVtaW5kZXJzIiBzdHlsZT0ic3Ryb2tlOiMxODE4MTg7c3Ryb2tlLXdpZHRoOjEuMDsiLz48cG9seWdvbiBmaWxsPSIjMTgxODE4IiBwb2ludHM9IjI5MDUuOTIsMTQ5Ljc0LDI5MDEuMDU2MywxNDEuMTc1OSwyOTAxLjg5NzgsMTQ2Ljc2OTgsMjg5Ni4zMDM5LDE0Ny42MTEzLDI5MDUuOTIsMTQ5Ljc0IiBzdHlsZT0ic3Ryb2tlOiMxODE4MTg7c3Ryb2tlLXdpZHRoOjEuMDsiLz48L2c+PCEtLWxpbmsgU3R1ZGVudCB0byBQYXJ0aWNpcGF0ZSBpbiBXZWxsLWJlaW5nIERpc2N1c3Npb25zLS0+PGcgaWQ9ImxpbmtfU3R1ZGVudF9QYXJ0aWNpcGF0ZSBpbiBXZWxsLWJlaW5nIERpc2N1c3Npb25zIj48cGF0aCBkPSJNMTYyOC4yNiw0NC45NSBDMTc4MS4xMSw0OC42NyAyMzA0LjgyLDYzLjc3IDI0NjgsOTkuNSBDMjUxMS42NSwxMDkuMDYgMjU1My4xMTYsMTI0LjkwODMgMjU4OC42NzYsMTQwLjUxODMgIiBmaWxsPSJub25lIiBpZD0iU3R1ZGVudC10by1QYXJ0aWNpcGF0ZSBpbiBXZWxsLWJlaW5nIERpc2N1c3Npb25zIiBzdHlsZT0ic3Ryb2tlOiMxODE4MTg7c3Ryb2tlLXdpZHRoOjEuMDsiLz48cG9seWdvbiBmaWxsPSIjMTgxODE4IiBwb2ludHM9IjI1OTQuMTcsMTQyLjkzLDI1ODcuNTM2OSwxMzUuNjQ5OCwyNTg5LjU5MTcsMTQwLjkyMDIsMjU4NC4zMjEyLDE0Mi45NzUxLDI1OTQuMTcsMTQyLjkzIiBzdHlsZT0ic3Ryb2tlOiMxODE4MTg7c3Ryb2tlLXdpZHRoOjEuMDsiLz48L2c+PCEtLWxpbmsgSW5zdHJ1Y3RvciB0byBVcGxvYWQgU3R1ZHkgTWF0ZXJpYWxzLS0+PGcgaWQ9ImxpbmtfSW5zdHJ1Y3Rvcl9VcGxvYWQgU3R1ZHkgTWF0ZXJpYWxzIj48cGF0aCBkPSJNMzYwMS40LDgwLjU5IEMzNjIxLjY4LDEwMy41IDM2NDMuMDUzNCwxMjcuNjM3MSAzNjU5LjYxMzQsMTQ2LjM0NzEgIiBmaWxsPSJub25lIiBpZD0iSW5zdHJ1Y3Rvci10by1VcGxvYWQgU3R1ZHkgTWF0ZXJpYWxzIiBzdHlsZT0ic3Ryb2tlOiMxODE4MTg7c3Ryb2tlLXdpZHRoOjEuMDsiLz48cG9seWdvbiBmaWxsPSIjMTgxODE4IiBwb2ludHM9IjM2NjMuNTksMTUwLjg0LDM2NjAuNjIwMywxNDEuNDQ5NSwzNjYwLjI3NjEsMTQ3LjA5NTksMzY1NC42Mjk4LDE0Ni43NTE3LDM2NjMuNTksMTUwLjg0IiBzdHlsZT0ic3Ryb2tlOiMxODE4MTg7c3Ryb2tlLXdpZHRoOjEuMDsiLz48L2c+PCEtLWxpbmsgQWRtaW4gdG8gTWFuYWdlIERpc2N1c3Npb24gUm9vbXMtLT48ZyBpZD0ibGlua19BZG1pbl9NYW5hZ2UgRGlzY3Vzc2lvbiBSb29tcyI+PHBhdGggZD0iTTM5MDgsODAuNTkgQzM5MDgsMTAyLjkyIDM5MDgsMTI0LjY3IDM5MDgsMTQzLjM5ICIgZmlsbD0ibm9uZSIgaWQ9IkFkbWluLXRvLU1hbmFnZSBEaXNjdXNzaW9uIFJvb21zIiBzdHlsZT0ic3Ryb2tlOiMxODE4MTg7c3Ryb2tlLXdpZHRoOjEuMDsiLz48cG9seWdvbiBmaWxsPSIjMTgxODE4IiBwb2ludHM9IjM5MDgsMTQ5LjM5LDM5MTIsMTQwLjM5LDM5MDgsMTQ0LjM5LDM5MDQsMTQwLjM5LDM5MDgsMTQ5LjM5IiBzdHlsZT0ic3Ryb2tlOiMxODE4MTg7c3Ryb2tlLXdpZHRoOjEuMDsiLz48L2c+PCEtLWxpbmsgSW5zdHJ1Y3RvciB0byBIb3N0IFR1dG9yaW5nIFNlc3Npb25zLS0+PGcgaWQ9ImxpbmtfSW5zdHJ1Y3Rvcl9Ib3N0IFR1dG9yaW5nIFNlc3Npb25zIj48cGF0aCBkPSJNMzUzNi44OSw4MC41OSBDMzUxNi43OSwxMDMuNSAzNDk1LjYyNzcsMTI3LjYyMDQgMzQ3OS4yMDc3LDE0Ni4zMzA0ICIgZmlsbD0ibm9uZSIgaWQ9Ikluc3RydWN0b3ItdG8tSG9zdCBUdXRvcmluZyBTZXNzaW9ucyIgc3R5bGU9InN0cm9rZTojMTgxODE4O3N0cm9rZS13aWR0aDoxLjA7Ii8+PHBvbHlnb24gZmlsbD0iIzE4MTgxOCIgcG9pbnRzPSIzNDc1LjI1LDE1MC44NCwzNDg0LjE5MjksMTQ2LjcxNCwzNDc4LjU0ODEsMTQ3LjA4MiwzNDc4LjE4MDEsMTQxLjQzNzEsMzQ3NS4yNSwxNTAuODQiIHN0eWxlPSJzdHJva2U6IzE4MTgxODtzdHJva2Utd2lkdGg6MS4wOyIvPjwvZz48IS0tbGluayBBSSB0byBBbmFseXplIExlYXJuaW5nIERhdGEtLT48ZyBpZD0ibGlua19BSV9BbmFseXplIExlYXJuaW5nIERhdGEiPjxwYXRoIGQ9Ik00NDU5LjE3LDU0LjU3IEM0NDg4LjI4LDY0LjYyIDQ1MzEuOTksODAuOTMgNDU2OCw5OS41IEM0NTk3LjkxLDExNC45MiA0NjI1LjAzNzMsMTMyLjk3NyA0NjQ2LjU3NzMsMTQ4LjI2NyAiIGZpbGw9Im5vbmUiIGlkPSJBSS10by1BbmFseXplIExlYXJuaW5nIERhdGEiIHN0eWxlPSJzdHJva2U6IzE4MTgxODtzdHJva2Utd2lkdGg6MS4wOyIvPjxwb2x5Z29uIGZpbGw9IiMxODE4MTgiIHBvaW50cz0iNDY1MS40NywxNTEuNzQsNDY0Ni40NDY0LDE0My4yNjg3LDQ2NDcuMzkyOCwxNDguODQ1OCw0NjQxLjgxNTcsMTQ5Ljc5MjIsNDY1MS40NywxNTEuNzQiIHN0eWxlPSJzdHJva2U6IzE4MTgxODtzdHJva2Utd2lkdGg6MS4wOyIvPjwvZz48IS0tbGluayBBSSB0byBTZW5kIFBlcnNvbmFsaXplZCBOb3RpZmljYXRpb25zLS0+PGcgaWQ9ImxpbmtfQUlfU2VuZCBQZXJzb25hbGl6ZWQgTm90aWZpY2F0aW9ucyI+PHBhdGggZD0iTTQ0MjcsODAuNTkgQzQ0MjcsMTAxLjAyIDQ0MjcsMTE5Ljk5IDQ0MjcsMTM4LjQzICIgZmlsbD0ibm9uZSIgaWQ9IkFJLXRvLVNlbmQgUGVyc29uYWxpemVkIE5vdGlmaWNhdGlvbnMiIHN0eWxlPSJzdHJva2U6IzE4MTgxODtzdHJva2Utd2lkdGg6MS4wOyIvPjxwb2x5Z29uIGZpbGw9IiMxODE4MTgiIHBvaW50cz0iNDQyNywxNDQuNDMsNDQzMSwxMzUuNDMsNDQyNywxMzkuNDMsNDQyMywxMzUuNDMsNDQyNywxNDQuNDMiIHN0eWxlPSJzdHJva2U6IzE4MTgxODtzdHJva2Utd2lkdGg6MS4wOyIvPjwvZz48IS0tbGluayBBSSB0byBQcm92aWRlIFN0dWR5IFN1Z2dlc3Rpb25zLS0+PGcgaWQ9ImxpbmtfQUlfUHJvdmlkZSBTdHVkeSBTdWdnZXN0aW9ucyI+PHBhdGggZD0iTTQzOTQuNzUsNTUuMDcgQzQzNjUuNzcsNjUuNCA0MzIyLjMxLDgxLjgzIDQyODYsOTkuNSBDNDI1NS4wMSwxMTQuNTggNDIyNi4zOTgyLDEzMS41MDA0IDQyMDIuNDU4MiwxNDYuNDYwNCAiIGZpbGw9Im5vbmUiIGlkPSJBSS10by1Qcm92aWRlIFN0dWR5IFN1Z2dlc3Rpb25zIiBzdHlsZT0ic3Ryb2tlOiMxODE4MTg7c3Ryb2tlLXdpZHRoOjEuMDsiLz48cG9seWdvbiBmaWxsPSIjMTgxODE4IiBwb2ludHM9IjQxOTcuMzcsMTQ5LjY0LDQyMDcuMTIyMSwxNDguMjYyNyw0MjAxLjYxMDIsMTQ2Ljk5MDMsNDIwMi44ODI2LDE0MS40Nzg0LDQxOTcuMzcsMTQ5LjY0IiBzdHlsZT0ic3Ryb2tlOiMxODE4MTg7c3Ryb2tlLXdpZHRoOjEuMDsiLz48L2c+PCEtLWxpbmsgUHJpdmFjeVN5c3RlbSB0byBNYW5hZ2UgVXNlciBEYXRhIENvbnNlbnQtLT48ZyBpZD0ibGlua19Qcml2YWN5U3lzdGVtX01hbmFnZSBVc2VyIERhdGEgQ29uc2VudCI+PHBhdGggZD0iTTUyNDAuMTEsNzUuMTEgQzUyNTUuOTYsODIuOCA1MjcyLjY5LDkxLjIyIDUyODgsOTkuNSBDNTMxNy42NSwxMTUuNTMgNTM0NS4zNTEyLDEzMi4yNjE0IDUzNjguODIxMiwxNDYuOTIxNCAiIGZpbGw9Im5vbmUiIGlkPSJQcml2YWN5U3lzdGVtLXRvLU1hbmFnZSBVc2VyIERhdGEgQ29uc2VudCIgc3R5bGU9InN0cm9rZTojMTgxODE4O3N0cm9rZS13aWR0aDoxLjA7Ii8+PHBvbHlnb24gZmlsbD0iIzE4MTgxOCIgcG9pbnRzPSI1MzczLjkxLDE1MC4xLDUzNjguMzk1OCwxNDEuOTM5NSw1MzY5LjY2OTMsMTQ3LjQ1MTEsNTM2NC4xNTc3LDE0OC43MjQ2LDUzNzMuOTEsMTUwLjEiIHN0eWxlPSJzdHJva2U6IzE4MTgxODtzdHJva2Utd2lkdGg6MS4wOyIvPjwvZz48IS0tbGluayBQcml2YWN5U3lzdGVtIHRvIEhhbmRsZSBQcml2YWN5IFNldHRpbmdzLS0+PGcgaWQ9ImxpbmtfUHJpdmFjeVN5c3RlbV9IYW5kbGUgUHJpdmFjeSBTZXR0aW5ncyI+PHBhdGggZD0iTTUxNzMsODAuNTkgQzUxNzMsMTAyLjkyIDUxNzMsMTI0LjY3IDUxNzMsMTQzLjM5ICIgZmlsbD0ibm9uZSIgaWQ9IlByaXZhY3lTeXN0ZW0tdG8tSGFuZGxlIFByaXZhY3kgU2V0dGluZ3MiIHN0eWxlPSJzdHJva2U6IzE4MTgxODtzdHJva2Utd2lkdGg6MS4wOyIvPjxwb2x5Z29uIGZpbGw9IiMxODE4MTgiIHBvaW50cz0iNTE3MywxNDkuMzksNTE3NywxNDAuMzksNTE3MywxNDQuMzksNTE2OSwxNDAuMzksNTE3MywxNDkuMzkiIHN0eWxlPSJzdHJva2U6IzE4MTgxODtzdHJva2Utd2lkdGg6MS4wOyIvPjwvZz48IS0tbGluayBQcml2YWN5U3lzdGVtIHRvIENvbXBseSB3aXRoIEdEUFIgU3RhbmRhcmRzLS0+PGcgaWQ9ImxpbmtfUHJpdmFjeVN5c3RlbV9Db21wbHkgd2l0aCBHRFBSIFN0YW5kYXJkcyI+PHBhdGggZD0iTTUxMDUuNzUsNzUuNTcgQzUwODkuOTksODMuMjEgNTA3My4zMyw5MS40OSA1MDU4LDk5LjUgQzUwMjcuNjIsMTE1LjM3IDQ5OTkuMDE2MSwxMzEuNDk5OSA0OTc0LjA3NjEsMTQ1Ljg5OTkgIiBmaWxsPSJub25lIiBpZD0iUHJpdmFjeVN5c3RlbS10by1Db21wbHkgd2l0aCBHRFBSIFN0YW5kYXJkcyIgc3R5bGU9InN0cm9rZTojMTgxODE4O3N0cm9rZS13aWR0aDoxLjA7Ii8+PHBvbHlnb24gZmlsbD0iIzE4MTgxOCIgcG9pbnRzPSI0OTY4Ljg4LDE0OC45LDQ5NzguNjc0MiwxNDcuODYzOCw0OTczLjIxMDEsMTQ2LjM5OTksNDk3NC42NzQsMTQwLjkzNTcsNDk2OC44OCwxNDguOSIgc3R5bGU9InN0cm9rZTojMTgxODE4O3N0cm9rZS13aWR0aDoxLjA7Ii8+PC9nPjwhLS1TUkM9W2JMSlJaamVtNDd0ZEFvb1VvV0ZZM29lWGcxUE1mS2g5aGxleVRNUWZyTTE3emVHZ0xGbGxGTjRrYTJNaWpabTUteXBuY0pDTnFrQXlJZ05DczhnWWVBUmp6LTh2aTl6RUFEdmxSSDFWcmZfam1KOHg2WGxYeU1rblNuYnhtYXFOaVRtc2pya0xMYTd1czlxZHRmbjhMeXJYWEFuOWczbGttSEZGTWlXVVNiUkpYN3JtYmQ5cHZhbnpQVkJNczhDWWNxTlBZMmNCbWRjUGdoeUpYTC1Ob3RwLU1OckFNSXVYWVVTTnpjbXJYemFqVEMtUXBPYlJLbG5wbm9GUlpDR3VFdVBWUWwyNDdYdlN3Sno2M0J6V3JYV284SXo2Y3VBNDVVcHpOZmhwVVBKb29QRi1aTnBTbUtGM1JGOHdDMm5yc2IyRWVXYmdlY2x6cVFxTDRZZ2phTWhLZ0tVNzV6U2N3M0E0RWNCbHQ3N2l3UExkbzVqNFU5RkhXdFRiQ0dQRE9QX1FHSTBULTBGZkZmTGVhQmZFQUtTOWV3UUJyQUhWSlpZdm9OazdHLUl6T1NoYkxxcHYxLVZ2XzJUN3FkVXdmMnRiQ0Z3emFqUGpUU056N3BNelloZ09WUEY5b2c1c09EWUhYTlRlbXJ4dFBIOFIta1NZVHpIRG1Xd0ZVOUktclQ0Q1FPR3JIN1ZnLXZQcHV1QUNMVUZycGJYSXRzQkJ4SnAzOUJEelFwVnNHRUNxMGdlcE5zUW9kbHhQMDFBeFBaM3B0dm9PNXdFbDl4NDNPbUhFOWtELTRucEdRSkFjVGgxYnNjYWVTYURPMWZ0NnVNZ3dqZ3JVWEw0ZmVjbjBETVJ0MFpRV25kRnpFY0NIUDFka3VnRUFJbHFuUUJZN1RSOTc4YzBXZHpLOV8wQzBdLS0+PC9nPjwvc3ZnPg==;" vertex="1" parent="1">
            <mxGeometry x="-2350" y="180" width="5529" height="224" as="geometry" />
          </mxCell>
        </UserObject>
        <UserObject label="" plantUmlData="{&#xa;  &quot;data&quot;: &quot;@startuml\nleft to right direction\n\nactor Student as \&quot;Student/User\&quot;\nactor Instructor\nactor Admin as \&quot;Admin/Moderator\&quot;\nactor AI as \&quot;AI System\&quot;\nactor PrivacySystem as \&quot;Data Privacy System\&quot;\n\n&#39; Vertical grouping of each use case category\nrectangle \&quot;Personalized Learning and Study Support\&quot; as PLS {\n    Student --&gt; (Set Learning Preferences)\n    Student --&gt; (Receive Study Recommendations)\n    Student --&gt; (Access Study Resources)\n    Student --&gt; (Receive Study Reminders)\n    Student --&gt; (Participate in Quizzes)\n    Student --&gt; (Track Progress)\n}\n\nrectangle \&quot;Social Interaction and Community\&quot; as SIC {\n    Student --&gt; (Join Discussion Rooms)\n    Student --&gt; (Create/Join Study Groups)\n    Student --&gt; (Send Messages)\n    Student --&gt; (Participate in Tutoring Sessions)\n    Student --&gt; (Attend Events)\n}\n\nrectangle \&quot;Mental Health and Well-being Support\&quot; as MH {\n    Student --&gt; (Access Mental Health Resources)\n    Student --&gt; (Set Well-being Reminders)\n    Student --&gt; (Participate in Well-being Discussions)\n}\n\nrectangle \&quot;Content Management\&quot; as CM {\n    Instructor --&gt; (Upload Study Materials)\n    Admin --&gt; (Manage Discussion Rooms)\n    Instructor --&gt; (Host Tutoring Sessions)\n}\n\nrectangle \&quot;Personalization and AI-driven Support\&quot; as PA {\n    AI --&gt; (Analyze Learning Data)\n    AI --&gt; (Send Personalized Notifications)\n    AI --&gt; (Provide Study Suggestions)\n}\n\nrectangle \&quot;Data Privacy and Compliance\&quot; as DP {\n    PrivacySystem --&gt; (Manage User Data Consent)\n    PrivacySystem --&gt; (Handle Privacy Settings)\n    PrivacySystem --&gt; (Comply with GDPR Standards)\n}\n\n@enduml\n&quot;,&#xa;  &quot;format&quot;: &quot;svg&quot;&#xa;}" id="_Vbfhu-zVOPFsl2eH2tf-2">
          <mxCell style="shape=image;noLabel=1;verticalAlign=top;aspect=fixed;imageAspect=0;image=data:image/svg+xml,PD94bWwgdmVyc2lvbj0iMS4wIiBlbmNvZGluZz0idXMtYXNjaWkiIHN0YW5kYWxvbmU9Im5vIj8+PHN2ZyB4bWxucz0iaHR0cDovL3d3dy53My5vcmcvMjAwMC9zdmciIHhtbG5zOnhsaW5rPSJodHRwOi8vd3d3LnczLm9yZy8xOTk5L3hsaW5rIiBjb250ZW50U3R5bGVUeXBlPSJ0ZXh0L2NzcyIgaGVpZ2h0PSIyMDU4cHgiIHByZXNlcnZlQXNwZWN0UmF0aW89Im5vbmUiIHN0eWxlPSJ3aWR0aDo1MDlweDtoZWlnaHQ6MjA1OHB4O2JhY2tncm91bmQ6I0ZGRkZGRjsiIHZlcnNpb249IjEuMSIgdmlld0JveD0iMCAwIDUwOSAyMDU4IiB3aWR0aD0iNTA5cHgiIHpvb21BbmRQYW49Im1hZ25pZnkiPjxkZWZzLz48Zz48IS0tY2x1c3RlciBQTFMtLT48ZyBpZD0iY2x1c3Rlcl9QTFMiPjxyZWN0IGZpbGw9Im5vbmUiIGhlaWdodD0iNDg0IiByeD0iMi41IiByeT0iMi41IiBzdHlsZT0ic3Ryb2tlOiMxODE4MTg7c3Ryb2tlLXdpZHRoOjEuMDsiIHdpZHRoPSIyODkiIHg9IjE5OS41IiB5PSI4NDQiLz48dGV4dCBmaWxsPSIjMDAwMDAwIiBmb250LWZhbWlseT0ic2Fucy1zZXJpZiIgZm9udC1zaXplPSIxNCIgZm9udC13ZWlnaHQ9ImJvbGQiIGxlbmd0aEFkanVzdD0ic3BhY2luZyIgdGV4dExlbmd0aD0iMjczIiB4PSIyMDcuNSIgeT0iODU5LjIzNDQiPlBlcnNvbmFsaXplZCBMZWFybmluZyBhbmQgU3R1ZHkgU3VwcG9ydDwvdGV4dD48L2c+PCEtLWNsdXN0ZXIgU0lDLS0+PGcgaWQ9ImNsdXN0ZXJfU0lDIj48cmVjdCBmaWxsPSJub25lIiBoZWlnaHQ9IjM5NiIgcng9IjIuNSIgcnk9IjIuNSIgc3R5bGU9InN0cm9rZTojMTgxODE4O3N0cm9rZS13aWR0aDoxLjA7IiB3aWR0aD0iMjg2IiB4PSIyMDAuNSIgeT0iMTM1MiIvPjx0ZXh0IGZpbGw9IiMwMDAwMDAiIGZvbnQtZmFtaWx5PSJzYW5zLXNlcmlmIiBmb250LXNpemU9IjE0IiBmb250LXdlaWdodD0iYm9sZCIgbGVuZ3RoQWRqdXN0PSJzcGFjaW5nIiB0ZXh0TGVuZ3RoPSIyMjYiIHg9IjIzMC41IiB5PSIxMzY3LjIzNDQiPlNvY2lhbCBJbnRlcmFjdGlvbiBhbmQgQ29tbXVuaXR5PC90ZXh0PjwvZz48IS0tY2x1c3RlciBNSC0tPjxnIGlkPSJjbHVzdGVyX01IIj48cmVjdCBmaWxsPSJub25lIiBoZWlnaHQ9IjI4MCIgcng9IjIuNSIgcnk9IjIuNSIgc3R5bGU9InN0cm9rZTojMTgxODE4O3N0cm9rZS13aWR0aDoxLjA7IiB3aWR0aD0iMzE5IiB4PSIxODQiIHk9IjE3NzIiLz48dGV4dCBmaWxsPSIjMDAwMDAwIiBmb250LWZhbWlseT0ic2Fucy1zZXJpZiIgZm9udC1zaXplPSIxNCIgZm9udC13ZWlnaHQ9ImJvbGQiIGxlbmd0aEFkanVzdD0ic3BhY2luZyIgdGV4dExlbmd0aD0iMjUyIiB4PSIyMTcuNSIgeT0iMTc4Ny4yMzQ0Ij5NZW50YWwgSGVhbHRoIGFuZCBXZWxsLWJlaW5nIFN1cHBvcnQ8L3RleHQ+PC9nPjwhLS1jbHVzdGVyIENNLS0+PGcgaWQ9ImNsdXN0ZXJfQ00iPjxyZWN0IGZpbGw9Im5vbmUiIGhlaWdodD0iMjQ3IiByeD0iMi41IiByeT0iMi41IiBzdHlsZT0ic3Ryb2tlOiMxODE4MTg7c3Ryb2tlLXdpZHRoOjEuMDsiIHdpZHRoPSIyMjciIHg9IjIzMCIgeT0iNTczIi8+PHRleHQgZmlsbD0iIzAwMDAwMCIgZm9udC1mYW1pbHk9InNhbnMtc2VyaWYiIGZvbnQtc2l6ZT0iMTQiIGZvbnQtd2VpZ2h0PSJib2xkIiBsZW5ndGhBZGp1c3Q9InNwYWNpbmciIHRleHRMZW5ndGg9IjEyNyIgeD0iMjgwIiB5PSI1ODguMjM0NCI+Q29udGVudCBNYW5hZ2VtZW50PC90ZXh0PjwvZz48IS0tY2x1c3RlciBQQS0tPjxnIGlkPSJjbHVzdGVyX1BBIj48cmVjdCBmaWxsPSJub25lIiBoZWlnaHQ9IjI2MSIgcng9IjIuNSIgcnk9IjIuNSIgc3R5bGU9InN0cm9rZTojMTgxODE4O3N0cm9rZS13aWR0aDoxLjA7IiB3aWR0aD0iMjc5IiB4PSIyMDQiIHk9IjI4OCIvPjx0ZXh0IGZpbGw9IiMwMDAwMDAiIGZvbnQtZmFtaWx5PSJzYW5zLXNlcmlmIiBmb250LXNpemU9IjE0IiBmb250LXdlaWdodD0iYm9sZCIgbGVuZ3RoQWRqdXN0PSJzcGFjaW5nIiB0ZXh0TGVuZ3RoPSIyNTkiIHg9IjIxNCIgeT0iMzAzLjIzNDQiPlBlcnNvbmFsaXphdGlvbiBhbmQgQUktZHJpdmVuIFN1cHBvcnQ8L3RleHQ+PC9nPjwhLS1jbHVzdGVyIERQLS0+PGcgaWQ9ImNsdXN0ZXJfRFAiPjxyZWN0IGZpbGw9Im5vbmUiIGhlaWdodD0iMjU3IiByeD0iMi41IiByeT0iMi41IiBzdHlsZT0ic3Ryb2tlOiMxODE4MTg7c3Ryb2tlLXdpZHRoOjEuMDsiIHdpZHRoPSIyNDgiIHg9IjIxOS41IiB5PSI3Ii8+PHRleHQgZmlsbD0iIzAwMDAwMCIgZm9udC1mYW1pbHk9InNhbnMtc2VyaWYiIGZvbnQtc2l6ZT0iMTQiIGZvbnQtd2VpZ2h0PSJib2xkIiBsZW5ndGhBZGp1c3Q9InNwYWNpbmciIHRleHRMZW5ndGg9IjE5MCIgeD0iMjQ4LjUiIHk9IjIyLjIzNDQiPkRhdGEgUHJpdmFjeSBhbmQgQ29tcGxpYW5jZTwvdGV4dD48L2c+PGcgaWQ9ImVsZW1fU2V0IExlYXJuaW5nIFByZWZlcmVuY2VzIj48ZWxsaXBzZSBjeD0iMzQzLjQ4NSIgY3k9Ijg5OS45OTciIGZpbGw9IiNGMUYxRjEiIHJ4PSIxMDAuNDg1IiByeT0iMjIuNDk3IiBzdHlsZT0ic3Ryb2tlOiMxODE4MTg7c3Ryb2tlLXdpZHRoOjAuNTsiLz48dGV4dCBmaWxsPSIjMDAwMDAwIiBmb250LWZhbWlseT0ic2Fucy1zZXJpZiIgZm9udC1zaXplPSIxNCIgbGVuZ3RoQWRqdXN0PSJzcGFjaW5nIiB0ZXh0TGVuZ3RoPSIxNjgiIHg9IjI1OS40ODUiIHk9IjkwMy43MzkyIj5TZXQgTGVhcm5pbmcgUHJlZmVyZW5jZXM8L3RleHQ+PC9nPjxnIGlkPSJlbGVtX1JlY2VpdmUgU3R1ZHkgUmVjb21tZW5kYXRpb25zIj48ZWxsaXBzZSBjeD0iMzQzLjI4NDkiIGN5PSI5ODMuOTU3IiBmaWxsPSIjRjFGMUYxIiByeD0iMTE3Ljc4NDkiIHJ5PSIyNS45NTciIHN0eWxlPSJzdHJva2U6IzE4MTgxODtzdHJva2Utd2lkdGg6MC41OyIvPjx0ZXh0IGZpbGw9IiMwMDAwMDAiIGZvbnQtZmFtaWx5PSJzYW5zLXNlcmlmIiBmb250LXNpemU9IjE0IiBsZW5ndGhBZGp1c3Q9InNwYWNpbmciIHRleHRMZW5ndGg9IjIwNSIgeD0iMjQwLjc4NDkiIHk9Ijk4Ny42OTkyIj5SZWNlaXZlIFN0dWR5IFJlY29tbWVuZGF0aW9uczwvdGV4dD48L2c+PGcgaWQ9ImVsZW1fQWNjZXNzIFN0dWR5IFJlc291cmNlcyI+PGVsbGlwc2UgY3g9IjM0My41NjIyIiBjeT0iMTA2Ni4yMTI0IiBmaWxsPSIjRjFGMUYxIiByeD0iOTQuMDYyMiIgcnk9IjIxLjIxMjQiIHN0eWxlPSJzdHJva2U6IzE4MTgxODtzdHJva2Utd2lkdGg6MC41OyIvPjx0ZXh0IGZpbGw9IiMwMDAwMDAiIGZvbnQtZmFtaWx5PSJzYW5zLXNlcmlmIiBmb250LXNpemU9IjE0IiBsZW5ndGhBZGp1c3Q9InNwYWNpbmciIHRleHRMZW5ndGg9IjE1NCIgeD0iMjY2LjU2MjIiIHk9IjEwNjkuOTU0NiI+QWNjZXNzIFN0dWR5IFJlc291cmNlczwvdGV4dD48L2c+PGcgaWQ9ImVsZW1fUmVjZWl2ZSBTdHVkeSBSZW1pbmRlcnMiPjxlbGxpcHNlIGN4PSIzNDMuNzIyMyIgY3k9IjExNDMuOTQ0NSIgZmlsbD0iI0YxRjFGMSIgcng9Ijk3LjcyMjMiIHJ5PSIyMS45NDQ1IiBzdHlsZT0ic3Ryb2tlOiMxODE4MTg7c3Ryb2tlLXdpZHRoOjAuNTsiLz48dGV4dCBmaWxsPSIjMDAwMDAwIiBmb250LWZhbWlseT0ic2Fucy1zZXJpZiIgZm9udC1zaXplPSIxNCIgbGVuZ3RoQWRqdXN0PSJzcGFjaW5nIiB0ZXh0TGVuZ3RoPSIxNjIiIHg9IjI2Mi43MjIzIiB5PSIxMTQ3LjY4NjciPlJlY2VpdmUgU3R1ZHkgUmVtaW5kZXJzPC90ZXh0PjwvZz48ZyBpZD0iZWxlbV9QYXJ0aWNpcGF0ZSBpbiBRdWl6emVzIj48ZWxsaXBzZSBjeD0iMzQzLjU2MjIiIGN5PSIxMjIyLjIxMjQiIGZpbGw9IiNGMUYxRjEiIHJ4PSI5NC4wNjIyIiByeT0iMjEuMjEyNCIgc3R5bGU9InN0cm9rZTojMTgxODE4O3N0cm9rZS13aWR0aDowLjU7Ii8+PHRleHQgZmlsbD0iIzAwMDAwMCIgZm9udC1mYW1pbHk9InNhbnMtc2VyaWYiIGZvbnQtc2l6ZT0iMTQiIGxlbmd0aEFkanVzdD0ic3BhY2luZyIgdGV4dExlbmd0aD0iMTU0IiB4PSIyNjYuNTYyMiIgeT0iMTIyNS45NTQ2Ij5QYXJ0aWNpcGF0ZSBpbiBRdWl6emVzPC90ZXh0PjwvZz48ZyBpZD0iZWxlbV9UcmFjayBQcm9ncmVzcyI+PGVsbGlwc2UgY3g9IjM0My41NDU2IiBjeT0iMTI5NC44MDkxIiBmaWxsPSIjRjFGMUYxIiByeD0iNjkuNTQ1NiIgcnk9IjE2LjMwOTEiIHN0eWxlPSJzdHJva2U6IzE4MTgxODtzdHJva2Utd2lkdGg6MC41OyIvPjx0ZXh0IGZpbGw9IiMwMDAwMDAiIGZvbnQtZmFtaWx5PSJzYW5zLXNlcmlmIiBmb250LXNpemU9IjE0IiBsZW5ndGhBZGp1c3Q9InNwYWNpbmciIHRleHRMZW5ndGg9Ijk4IiB4PSIyOTQuNTQ1NiIgeT0iMTI5OC41NTEzIj5UcmFjayBQcm9ncmVzczwvdGV4dD48L2c+PGcgaWQ9ImVsZW1fSm9pbiBEaXNjdXNzaW9uIFJvb21zIj48ZWxsaXBzZSBjeD0iMzQzLjI4OTUiIGN5PSIxNDA1Ljc1NzkiIGZpbGw9IiNGMUYxRjEiIHJ4PSI5MS43ODk1IiByeT0iMjAuNzU3OSIgc3R5bGU9InN0cm9rZTojMTgxODE4O3N0cm9rZS13aWR0aDowLjU7Ii8+PHRleHQgZmlsbD0iIzAwMDAwMCIgZm9udC1mYW1pbHk9InNhbnMtc2VyaWYiIGZvbnQtc2l6ZT0iMTQiIGxlbmd0aEFkanVzdD0ic3BhY2luZyIgdGV4dExlbmd0aD0iMTQ5IiB4PSIyNjguNzg5NSIgeT0iMTQwOS41MDAxIj5Kb2luIERpc2N1c3Npb24gUm9vbXM8L3RleHQ+PC9nPjxnIGlkPSJlbGVtX0NyZWF0ZS9Kb2luIFN0dWR5IEdyb3VwcyI+PGVsbGlwc2UgY3g9IjM0My40NDY4IiBjeT0iMTQ4NS4wODk0IiBmaWxsPSIjRjFGMUYxIiByeD0iMTAwLjk0NjgiIHJ5PSIyMi41ODk0IiBzdHlsZT0ic3Ryb2tlOiMxODE4MTg7c3Ryb2tlLXdpZHRoOjAuNTsiLz48dGV4dCBmaWxsPSIjMDAwMDAwIiBmb250LWZhbWlseT0ic2Fucy1zZXJpZiIgZm9udC1zaXplPSIxNCIgbGVuZ3RoQWRqdXN0PSJzcGFjaW5nIiB0ZXh0TGVuZ3RoPSIxNjkiIHg9IjI1OC45NDY4IiB5PSIxNDg4LjgzMTUiPkNyZWF0ZS9Kb2luIFN0dWR5IEdyb3VwczwvdGV4dD48L2c+PGcgaWQ9ImVsZW1fU2VuZCBNZXNzYWdlcyI+PGVsbGlwc2UgY3g9IjM0My42ODM0IiBjeT0iMTU1OC4yMzY3IiBmaWxsPSIjRjFGMUYxIiByeD0iNjYuNjgzNCIgcnk9IjE1LjczNjciIHN0eWxlPSJzdHJva2U6IzE4MTgxODtzdHJva2Utd2lkdGg6MC41OyIvPjx0ZXh0IGZpbGw9IiMwMDAwMDAiIGZvbnQtZmFtaWx5PSJzYW5zLXNlcmlmIiBmb250LXNpemU9IjE0IiBsZW5ndGhBZGp1c3Q9InNwYWNpbmciIHRleHRMZW5ndGg9IjkxIiB4PSIyOTguMTgzNCIgeT0iMTU2MS45Nzg5Ij5TZW5kIE1lc3NhZ2VzPC90ZXh0PjwvZz48ZyBpZD0iZWxlbV9QYXJ0aWNpcGF0ZSBpbiBUdXRvcmluZyBTZXNzaW9ucyI+PGVsbGlwc2UgY3g9IjM0My4zMDM2IiBjeT0iMTYzNi43NjA3IiBmaWxsPSIjRjFGMUYxIiByeD0iMTI2LjgwMzYiIHJ5PSIyNy43NjA3IiBzdHlsZT0ic3Ryb2tlOiMxODE4MTg7c3Ryb2tlLXdpZHRoOjAuNTsiLz48dGV4dCBmaWxsPSIjMDAwMDAwIiBmb250LWZhbWlseT0ic2Fucy1zZXJpZiIgZm9udC1zaXplPSIxNCIgbGVuZ3RoQWRqdXN0PSJzcGFjaW5nIiB0ZXh0TGVuZ3RoPSIyMjQiIHg9IjIzMS4zMDM2IiB5PSIxNjQwLjUwMjkiPlBhcnRpY2lwYXRlIGluIFR1dG9yaW5nIFNlc3Npb25zPC90ZXh0PjwvZz48ZyBpZD0iZWxlbV9BdHRlbmQgRXZlbnRzIj48ZWxsaXBzZSBjeD0iMzQzLjY4MzQiIGN5PSIxNzE2LjIzNjciIGZpbGw9IiNGMUYxRjEiIHJ4PSI2Ni42ODM0IiByeT0iMTUuNzM2NyIgc3R5bGU9InN0cm9rZTojMTgxODE4O3N0cm9rZS13aWR0aDowLjU7Ii8+PHRleHQgZmlsbD0iIzAwMDAwMCIgZm9udC1mYW1pbHk9InNhbnMtc2VyaWYiIGZvbnQtc2l6ZT0iMTQiIGxlbmd0aEFkanVzdD0ic3BhY2luZyIgdGV4dExlbmd0aD0iOTEiIHg9IjI5OC4xODM0IiB5PSIxNzE5Ljk3ODkiPkF0dGVuZCBFdmVudHM8L3RleHQ+PC9nPjxnIGlkPSJlbGVtX0FjY2VzcyBNZW50YWwgSGVhbHRoIFJlc291cmNlcyI+PGVsbGlwc2UgY3g9IjM0My42NTA5IiBjeT0iMTgzMS45MzAyIiBmaWxsPSIjRjFGMUYxIiByeD0iMTIwLjE1MDkiIHJ5PSIyNi40MzAyIiBzdHlsZT0ic3Ryb2tlOiMxODE4MTg7c3Ryb2tlLXdpZHRoOjAuNTsiLz48dGV4dCBmaWxsPSIjMDAwMDAwIiBmb250LWZhbWlseT0ic2Fucy1zZXJpZiIgZm9udC1zaXplPSIxNCIgbGVuZ3RoQWRqdXN0PSJzcGFjaW5nIiB0ZXh0TGVuZ3RoPSIyMTAiIHg9IjIzOC42NTA5IiB5PSIxODM1LjY3MjQiPkFjY2VzcyBNZW50YWwgSGVhbHRoIFJlc291cmNlczwvdGV4dD48L2c+PGcgaWQ9ImVsZW1fU2V0IFdlbGwtYmVpbmcgUmVtaW5kZXJzIj48ZWxsaXBzZSBjeD0iMzQzLjQ0NjgiIGN5PSIxOTE2LjA4OTQiIGZpbGw9IiNGMUYxRjEiIHJ4PSIxMDAuOTQ2OCIgcnk9IjIyLjU4OTQiIHN0eWxlPSJzdHJva2U6IzE4MTgxODtzdHJva2Utd2lkdGg6MC41OyIvPjx0ZXh0IGZpbGw9IiMwMDAwMDAiIGZvbnQtZmFtaWx5PSJzYW5zLXNlcmlmIiBmb250LXNpemU9IjE0IiBsZW5ndGhBZGp1c3Q9InNwYWNpbmciIHRleHRMZW5ndGg9IjE2OSIgeD0iMjU4Ljk0NjgiIHk9IjE5MTkuODMxNSI+U2V0IFdlbGwtYmVpbmcgUmVtaW5kZXJzPC90ZXh0PjwvZz48ZyBpZD0iZWxlbV9QYXJ0aWNpcGF0ZSBpbiBXZWxsLWJlaW5nIERpc2N1c3Npb25zIj48ZWxsaXBzZSBjeD0iMzQzLjU4MyIgY3k9IjIwMDUuMTE2NiIgZmlsbD0iI0YxRjFGMSIgcng9IjE0My41ODMiIHJ5PSIzMS4xMTY2IiBzdHlsZT0ic3Ryb2tlOiMxODE4MTg7c3Ryb2tlLXdpZHRoOjAuNTsiLz48dGV4dCBmaWxsPSIjMDAwMDAwIiBmb250LWZhbWlseT0ic2Fucy1zZXJpZiIgZm9udC1zaXplPSIxNCIgbGVuZ3RoQWRqdXN0PSJzcGFjaW5nIiB0ZXh0TGVuZ3RoPSIyNTkiIHg9IjIxNC4wODMiIHk9IjIwMDguODU4OCI+UGFydGljaXBhdGUgaW4gV2VsbC1iZWluZyBEaXNjdXNzaW9uczwvdGV4dD48L2c+PGcgaWQ9ImVsZW1fVXBsb2FkIFN0dWR5IE1hdGVyaWFscyI+PGVsbGlwc2UgY3g9IjM0My41NjIyIiBjeT0iNzA0LjIxMjQiIGZpbGw9IiNGMUYxRjEiIHJ4PSI5NC4wNjIyIiByeT0iMjEuMjEyNCIgc3R5bGU9InN0cm9rZTojMTgxODE4O3N0cm9rZS13aWR0aDowLjU7Ii8+PHRleHQgZmlsbD0iIzAwMDAwMCIgZm9udC1mYW1pbHk9InNhbnMtc2VyaWYiIGZvbnQtc2l6ZT0iMTQiIGxlbmd0aEFkanVzdD0ic3BhY2luZyIgdGV4dExlbmd0aD0iMTU0IiB4PSIyNjYuNTYyMiIgeT0iNzA3Ljk1NDYiPlVwbG9hZCBTdHVkeSBNYXRlcmlhbHM8L3RleHQ+PC9nPjxnIGlkPSJlbGVtX01hbmFnZSBEaXNjdXNzaW9uIFJvb21zIj48ZWxsaXBzZSBjeD0iMzQzLjcyMjMiIGN5PSI3ODEuOTQ0NSIgZmlsbD0iI0YxRjFGMSIgcng9Ijk3LjcyMjMiIHJ5PSIyMS45NDQ1IiBzdHlsZT0ic3Ryb2tlOiMxODE4MTg7c3Ryb2tlLXdpZHRoOjAuNTsiLz48dGV4dCBmaWxsPSIjMDAwMDAwIiBmb250LWZhbWlseT0ic2Fucy1zZXJpZiIgZm9udC1zaXplPSIxNCIgbGVuZ3RoQWRqdXN0PSJzcGFjaW5nIiB0ZXh0TGVuZ3RoPSIxNjIiIHg9IjI2Mi43MjIzIiB5PSI3ODUuNjg2NyI+TWFuYWdlIERpc2N1c3Npb24gUm9vbXM8L3RleHQ+PC9nPjxnIGlkPSJlbGVtX0hvc3QgVHV0b3JpbmcgU2Vzc2lvbnMiPjxlbGxpcHNlIGN4PSIzNDMuNTYyMiIgY3k9IjYyNy4yMTI0IiBmaWxsPSIjRjFGMUYxIiByeD0iOTQuMDYyMiIgcnk9IjIxLjIxMjQiIHN0eWxlPSJzdHJva2U6IzE4MTgxODtzdHJva2Utd2lkdGg6MC41OyIvPjx0ZXh0IGZpbGw9IiMwMDAwMDAiIGZvbnQtZmFtaWx5PSJzYW5zLXNlcmlmIiBmb250LXNpemU9IjE0IiBsZW5ndGhBZGp1c3Q9InNwYWNpbmciIHRleHRMZW5ndGg9IjE1NCIgeD0iMjY2LjU2MjIiIHk9IjYzMC45NTQ2Ij5Ib3N0IFR1dG9yaW5nIFNlc3Npb25zPC90ZXh0PjwvZz48ZyBpZD0iZWxlbV9BbmFseXplIExlYXJuaW5nIERhdGEiPjxlbGxpcHNlIGN4PSIzNDMuMzgzOSIgY3k9IjM0Mi4wNzY4IiBmaWxsPSIjRjFGMUYxIiByeD0iOTAuODgzOSIgcnk9IjIwLjU3NjgiIHN0eWxlPSJzdHJva2U6IzE4MTgxODtzdHJva2Utd2lkdGg6MC41OyIvPjx0ZXh0IGZpbGw9IiMwMDAwMDAiIGZvbnQtZmFtaWx5PSJzYW5zLXNlcmlmIiBmb250LXNpemU9IjE0IiBsZW5ndGhBZGp1c3Q9InNwYWNpbmciIHRleHRMZW5ndGg9IjE0NyIgeD0iMjY5Ljg4MzkiIHk9IjM0NS44MTkiPkFuYWx5emUgTGVhcm5pbmcgRGF0YTwvdGV4dD48L2c+PGcgaWQ9ImVsZW1fU2VuZCBQZXJzb25hbGl6ZWQgTm90aWZpY2F0aW9ucyI+PGVsbGlwc2UgY3g9IjM0My40NzIzIiBjeT0iNDI1LjA5NDUiIGZpbGw9IiNGMUYxRjEiIHJ4PSIxMjMuNDcyMyIgcnk9IjI3LjA5NDUiIHN0eWxlPSJzdHJva2U6IzE4MTgxODtzdHJva2Utd2lkdGg6MC41OyIvPjx0ZXh0IGZpbGw9IiMwMDAwMDAiIGZvbnQtZmFtaWx5PSJzYW5zLXNlcmlmIiBmb250LXNpemU9IjE0IiBsZW5ndGhBZGp1c3Q9InNwYWNpbmciIHRleHRMZW5ndGg9IjIxNyIgeD0iMjM0Ljk3MjMiIHk9IjQyOC44MzY2Ij5TZW5kIFBlcnNvbmFsaXplZCBOb3RpZmljYXRpb25zPC90ZXh0PjwvZz48ZyBpZD0iZWxlbV9Qcm92aWRlIFN0dWR5IFN1Z2dlc3Rpb25zIj48ZWxsaXBzZSBjeD0iMzQzLjcyNTIiIGN5PSI1MTAuMTQ1IiBmaWxsPSIjRjFGMUYxIiByeD0iMTAzLjcyNTIiIHJ5PSIyMy4xNDUiIHN0eWxlPSJzdHJva2U6IzE4MTgxODtzdHJva2Utd2lkdGg6MC41OyIvPjx0ZXh0IGZpbGw9IiMwMDAwMDAiIGZvbnQtZmFtaWx5PSJzYW5zLXNlcmlmIiBmb250LXNpemU9IjE0IiBsZW5ndGhBZGp1c3Q9InNwYWNpbmciIHRleHRMZW5ndGg9IjE3NSIgeD0iMjU2LjIyNTIiIHk9IjUxMy44ODcyIj5Qcm92aWRlIFN0dWR5IFN1Z2dlc3Rpb25zPC90ZXh0PjwvZz48ZyBpZD0iZWxlbV9NYW5hZ2UgVXNlciBEYXRhIENvbnNlbnQiPjxlbGxpcHNlIGN4PSIzNDMuNDg1IiBjeT0iNjIuOTk3IiBmaWxsPSIjRjFGMUYxIiByeD0iMTAwLjQ4NSIgcnk9IjIyLjQ5NyIgc3R5bGU9InN0cm9rZTojMTgxODE4O3N0cm9rZS13aWR0aDowLjU7Ii8+PHRleHQgZmlsbD0iIzAwMDAwMCIgZm9udC1mYW1pbHk9InNhbnMtc2VyaWYiIGZvbnQtc2l6ZT0iMTQiIGxlbmd0aEFkanVzdD0ic3BhY2luZyIgdGV4dExlbmd0aD0iMTY4IiB4PSIyNTkuNDg1IiB5PSI2Ni43MzkyIj5NYW5hZ2UgVXNlciBEYXRhIENvbnNlbnQ8L3RleHQ+PC9nPjxnIGlkPSJlbGVtX0hhbmRsZSBQcml2YWN5IFNldHRpbmdzIj48ZWxsaXBzZSBjeD0iMzQzLjI2MzMiIGN5PSIxNDIuODUyNyIgZmlsbD0iI0YxRjFGMSIgcng9Ijk3LjI2MzMiIHJ5PSIyMS44NTI3IiBzdHlsZT0ic3Ryb2tlOiMxODE4MTg7c3Ryb2tlLXdpZHRoOjAuNTsiLz48dGV4dCBmaWxsPSIjMDAwMDAwIiBmb250LWZhbWlseT0ic2Fucy1zZXJpZiIgZm9udC1zaXplPSIxNCIgbGVuZ3RoQWRqdXN0PSJzcGFjaW5nIiB0ZXh0TGVuZ3RoPSIxNjEiIHg9IjI2Mi43NjMzIiB5PSIxNDYuNTk0OCI+SGFuZGxlIFByaXZhY3kgU2V0dGluZ3M8L3RleHQ+PC9nPjxnIGlkPSJlbGVtX0NvbXBseSB3aXRoIEdEUFIgU3RhbmRhcmRzIj48ZWxsaXBzZSBjeD0iMzQzLjQxNTgiIGN5PSIyMjMuOTgzMiIgZmlsbD0iI0YxRjFGMSIgcng9IjEwNy45MTU4IiByeT0iMjMuOTgzMiIgc3R5bGU9InN0cm9rZTojMTgxODE4O3N0cm9rZS13aWR0aDowLjU7Ii8+PHRleHQgZmlsbD0iIzAwMDAwMCIgZm9udC1mYW1pbHk9InNhbnMtc2VyaWYiIGZvbnQtc2l6ZT0iMTQiIGxlbmd0aEFkanVzdD0ic3BhY2luZyIgdGV4dExlbmd0aD0iMTg0IiB4PSIyNTEuNDE1OCIgeT0iMjI3LjcyNTMiPkNvbXBseSB3aXRoIEdEUFIgU3RhbmRhcmRzPC90ZXh0PjwvZz48IS0tZW50aXR5IFN0dWRlbnQtLT48ZyBpZD0iZWxlbV9TdHVkZW50Ij48ZWxsaXBzZSBjeD0iNzMiIGN5PSIxNDE2IiBmaWxsPSIjRjFGMUYxIiByeD0iOCIgcnk9IjgiIHN0eWxlPSJzdHJva2U6IzE4MTgxODtzdHJva2Utd2lkdGg6MC41OyIvPjxwYXRoIGQ9Ik03MywxNDI0IEw3MywxNDUxIE02MCwxNDMyIEw4NiwxNDMyIE03MywxNDUxIEw2MCwxNDY2IE03MywxNDUxIEw4NiwxNDY2ICIgZmlsbD0ibm9uZSIgc3R5bGU9InN0cm9rZTojMTgxODE4O3N0cm9rZS13aWR0aDowLjU7Ii8+PHRleHQgZmlsbD0iIzAwMDAwMCIgZm9udC1mYW1pbHk9InNhbnMtc2VyaWYiIGZvbnQtc2l6ZT0iMTQiIGxlbmd0aEFkanVzdD0ic3BhY2luZyIgdGV4dExlbmd0aD0iODQiIHg9IjMxIiB5PSIxNDgwLjczNDQiPlN0dWRlbnQvVXNlcjwvdGV4dD48L2c+PCEtLWVudGl0eSBJbnN0cnVjdG9yLS0+PGcgaWQ9ImVsZW1fSW5zdHJ1Y3RvciI+PGVsbGlwc2UgY3g9IjczIiBjeT0iNjIwIiBmaWxsPSIjRjFGMUYxIiByeD0iOCIgcnk9IjgiIHN0eWxlPSJzdHJva2U6IzE4MTgxODtzdHJva2Utd2lkdGg6MC41OyIvPjxwYXRoIGQ9Ik03Myw2MjggTDczLDY1NSBNNjAsNjM2IEw4Niw2MzYgTTczLDY1NSBMNjAsNjcwIE03Myw2NTUgTDg2LDY3MCAiIGZpbGw9Im5vbmUiIHN0eWxlPSJzdHJva2U6IzE4MTgxODtzdHJva2Utd2lkdGg6MC41OyIvPjx0ZXh0IGZpbGw9IiMwMDAwMDAiIGZvbnQtZmFtaWx5PSJzYW5zLXNlcmlmIiBmb250LXNpemU9IjE0IiBsZW5ndGhBZGp1c3Q9InNwYWNpbmciIHRleHRMZW5ndGg9IjcwIiB4PSIzOCIgeT0iNjg0LjczNDQiPkluc3RydWN0b3I8L3RleHQ+PC9nPjwhLS1lbnRpdHkgQWRtaW4tLT48ZyBpZD0iZWxlbV9BZG1pbiI+PGVsbGlwc2UgY3g9IjczIiBjeT0iNzUzIiBmaWxsPSIjRjFGMUYxIiByeD0iOCIgcnk9IjgiIHN0eWxlPSJzdHJva2U6IzE4MTgxODtzdHJva2Utd2lkdGg6MC41OyIvPjxwYXRoIGQ9Ik03Myw3NjEgTDczLDc4OCBNNjAsNzY5IEw4Niw3NjkgTTczLDc4OCBMNjAsODAzIE03Myw3ODggTDg2LDgwMyAiIGZpbGw9Im5vbmUiIHN0eWxlPSJzdHJva2U6IzE4MTgxODtzdHJva2Utd2lkdGg6MC41OyIvPjx0ZXh0IGZpbGw9IiMwMDAwMDAiIGZvbnQtZmFtaWx5PSJzYW5zLXNlcmlmIiBmb250LXNpemU9IjE0IiBsZW5ndGhBZGp1c3Q9InNwYWNpbmciIHRleHRMZW5ndGg9IjEwNiIgeD0iMjAiIHk9IjgxNy43MzQ0Ij5BZG1pbi9Nb2RlcmF0b3I8L3RleHQ+PC9nPjwhLS1lbnRpdHkgQUktLT48ZyBpZD0iZWxlbV9BSSI+PGVsbGlwc2UgY3g9IjczIiBjeT0iMzk2IiBmaWxsPSIjRjFGMUYxIiByeD0iOCIgcnk9IjgiIHN0eWxlPSJzdHJva2U6IzE4MTgxODtzdHJva2Utd2lkdGg6MC41OyIvPjxwYXRoIGQ9Ik03Myw0MDQgTDczLDQzMSBNNjAsNDEyIEw4Niw0MTIgTTczLDQzMSBMNjAsNDQ2IE03Myw0MzEgTDg2LDQ0NiAiIGZpbGw9Im5vbmUiIHN0eWxlPSJzdHJva2U6IzE4MTgxODtzdHJva2Utd2lkdGg6MC41OyIvPjx0ZXh0IGZpbGw9IiMwMDAwMDAiIGZvbnQtZmFtaWx5PSJzYW5zLXNlcmlmIiBmb250LXNpemU9IjE0IiBsZW5ndGhBZGp1c3Q9InNwYWNpbmciIHRleHRMZW5ndGg9IjY0IiB4PSI0MSIgeT0iNDYwLjczNDQiPkFJIFN5c3RlbTwvdGV4dD48L2c+PCEtLWVudGl0eSBQcml2YWN5U3lzdGVtLS0+PGcgaWQ9ImVsZW1fUHJpdmFjeVN5c3RlbSI+PGVsbGlwc2UgY3g9IjczIiBjeT0iMTE0IiBmaWxsPSIjRjFGMUYxIiByeD0iOCIgcnk9IjgiIHN0eWxlPSJzdHJva2U6IzE4MTgxODtzdHJva2Utd2lkdGg6MC41OyIvPjxwYXRoIGQ9Ik03MywxMjIgTDczLDE0OSBNNjAsMTMwIEw4NiwxMzAgTTczLDE0OSBMNjAsMTY0IE03MywxNDkgTDg2LDE2NCAiIGZpbGw9Im5vbmUiIHN0eWxlPSJzdHJva2U6IzE4MTgxODtzdHJva2Utd2lkdGg6MC41OyIvPjx0ZXh0IGZpbGw9IiMwMDAwMDAiIGZvbnQtZmFtaWx5PSJzYW5zLXNlcmlmIiBmb250LXNpemU9IjE0IiBsZW5ndGhBZGp1c3Q9InNwYWNpbmciIHRleHRMZW5ndGg9IjEzNCIgeD0iNiIgeT0iMTc4LjczNDQiPkRhdGEgUHJpdmFjeSBTeXN0ZW08L3RleHQ+PC9nPjwhLS1saW5rIFN0dWRlbnQgdG8gU2V0IExlYXJuaW5nIFByZWZlcmVuY2VzLS0+PGcgaWQ9ImxpbmtfU3R1ZGVudF9TZXQgTGVhcm5pbmcgUHJlZmVyZW5jZXMiPjxwYXRoIGQ9Ik03Ni40NiwxNDA3LjM3IEM4NC4xMywxMzAyIDExMS4wNSwxMDA3LjM3IDE3Niw5NDAgQzE5NC4xNiw5MjEuMTcgMjEzLjY2MSw5MTEuODk3NiAyMzkuMTExLDkwNi4wNzc2ICIgZmlsbD0ibm9uZSIgaWQ9IlN0dWRlbnQtdG8tU2V0IExlYXJuaW5nIFByZWZlcmVuY2VzIiBzdHlsZT0ic3Ryb2tlOiMxODE4MTg7c3Ryb2tlLXdpZHRoOjEuMDsiLz48cG9seWdvbiBmaWxsPSIjMTgxODE4IiBwb2ludHM9IjI0NC45Niw5MDQuNzQsMjM1LjI5NDgsOTAyLjg0NywyNDAuMDg1OCw5MDUuODU0NiwyMzcuMDc4Miw5MTAuNjQ1NywyNDQuOTYsOTA0Ljc0IiBzdHlsZT0ic3Ryb2tlOiMxODE4MTg7c3Ryb2tlLXdpZHRoOjEuMDsiLz48L2c+PCEtLWxpbmsgU3R1ZGVudCB0byBSZWNlaXZlIFN0dWR5IFJlY29tbWVuZGF0aW9ucy0tPjxnIGlkPSJsaW5rX1N0dWRlbnRfUmVjZWl2ZSBTdHVkeSBSZWNvbW1lbmRhdGlvbnMiPjxwYXRoIGQ9Ik03OC4yNSwxNDA3LjMyIEM4OS40MSwxMzE1LjA0IDEyMi40MiwxMDgxLjMgMTc2LDEwMjcgQzE5MS44MywxMDEwLjk2IDIwNy4wNjc0LDEwMDIuMzY4NiAyMjguNzY3NCw5OTUuNzk4NiAiIGZpbGw9Im5vbmUiIGlkPSJTdHVkZW50LXRvLVJlY2VpdmUgU3R1ZHkgUmVjb21tZW5kYXRpb25zIiBzdHlsZT0ic3Ryb2tlOiMxODE4MTg7c3Ryb2tlLXdpZHRoOjEuMDsiLz48cG9seWdvbiBmaWxsPSIjMTgxODE4IiBwb2ludHM9IjIzNC41MSw5OTQuMDYsMjI0LjczNyw5OTIuODM5NiwyMjkuNzI0NSw5OTUuNTA4OSwyMjcuMDU1MiwxMDAwLjQ5NjQsMjM0LjUxLDk5NC4wNiIgc3R5bGU9InN0cm9rZTojMTgxODE4O3N0cm9rZS13aWR0aDoxLjA7Ii8+PC9nPjwhLS1saW5rIFN0dWRlbnQgdG8gQWNjZXNzIFN0dWR5IFJlc291cmNlcy0tPjxnIGlkPSJsaW5rX1N0dWRlbnRfQWNjZXNzIFN0dWR5IFJlc291cmNlcyI+PHBhdGggZD0iTTczLjY4LDE0MDcuNDcgQzc1LjI0LDEzMzcuMTMgODkuMTUsMTE4NS4yOCAxNzYsMTEwNCBDMTk2LjI0LDEwODUuMDYgMjE4LjAyMTksMTA3Ni4wMzMyIDI0NC45ODE5LDEwNzAuNzUzMiAiIGZpbGw9Im5vbmUiIGlkPSJTdHVkZW50LXRvLUFjY2VzcyBTdHVkeSBSZXNvdXJjZXMiIHN0eWxlPSJzdHJva2U6IzE4MTgxODtzdHJva2Utd2lkdGg6MS4wOyIvPjxwb2x5Z29uIGZpbGw9IiMxODE4MTgiIHBvaW50cz0iMjUwLjg3LDEwNjkuNiwyNDEuMjY5LDEwNjcuNDA0MywyNDUuOTYzMiwxMDcwLjU2MSwyNDIuODA2NiwxMDc1LjI1NTIsMjUwLjg3LDEwNjkuNiIgc3R5bGU9InN0cm9rZTojMTgxODE4O3N0cm9rZS13aWR0aDoxLjA7Ii8+PC9nPjwhLS1saW5rIFN0dWRlbnQgdG8gUmVjZWl2ZSBTdHVkeSBSZW1pbmRlcnMtLT48ZyBpZD0ibGlua19TdHVkZW50X1JlY2VpdmUgU3R1ZHkgUmVtaW5kZXJzIj48cGF0aCBkPSJNNzcuNzYsMTQwNy4wNSBDODUuNTMsMTM0OS42OCAxMDguNzIsMTI0MS4zOSAxNzYsMTE4MyBDMTk2LjI5LDExNjUuMzkgMjE3LjE3MzksMTE1Ni42MTA0IDI0My4yODM5LDExNTEuMDAwNCAiIGZpbGw9Im5vbmUiIGlkPSJTdHVkZW50LXRvLVJlY2VpdmUgU3R1ZHkgUmVtaW5kZXJzIiBzdHlsZT0ic3Ryb2tlOiMxODE4MTg7c3Ryb2tlLXdpZHRoOjEuMDsiLz48cG9seWdvbiBmaWxsPSIjMTgxODE4IiBwb2ludHM9IjI0OS4xNSwxMTQ5Ljc0LDIzOS41MTA2LDExNDcuNzE5OCwyNDQuMjYxNiwxMTUwLjc5MDMsMjQxLjE5MTEsMTE1NS41NDEzLDI0OS4xNSwxMTQ5Ljc0IiBzdHlsZT0ic3Ryb2tlOiMxODE4MTg7c3Ryb2tlLXdpZHRoOjEuMDsiLz48L2c+PCEtLWxpbmsgU3R1ZGVudCB0byBQYXJ0aWNpcGF0ZSBpbiBRdWl6emVzLS0+PGcgaWQ9ImxpbmtfU3R1ZGVudF9QYXJ0aWNpcGF0ZSBpbiBRdWl6emVzIj48cGF0aCBkPSJNODQuNjUsMTQwNy40NiBDOTguNTksMTM2NS4yOCAxMjcuMiwxMjk3LjkgMTc2LDEyNjEgQzE5OC4zOCwxMjQ0LjA4IDIyMS4wNDIzLDEyMzUuNTQ1NSAyNDguMTUyMywxMjI5Ljk4NTUgIiBmaWxsPSJub25lIiBpZD0iU3R1ZGVudC10by1QYXJ0aWNpcGF0ZSBpbiBRdWl6emVzIiBzdHlsZT0ic3Ryb2tlOiMxODE4MTg7c3Ryb2tlLXdpZHRoOjEuMDsiLz48cG9seWdvbiBmaWxsPSIjMTgxODE4IiBwb2ludHM9IjI1NC4wMywxMjI4Ljc4LDI0NC40MDk5LDEyMjYuNjY5NywyNDkuMTMyLDEyMjkuNzg0NSwyNDYuMDE3MSwxMjM0LjUwNjYsMjU0LjAzLDEyMjguNzgiIHN0eWxlPSJzdHJva2U6IzE4MTgxODtzdHJva2Utd2lkdGg6MS4wOyIvPjwvZz48IS0tbGluayBTdHVkZW50IHRvIFRyYWNrIFByb2dyZXNzLS0+PGcgaWQ9ImxpbmtfU3R1ZGVudF9UcmFjayBQcm9ncmVzcyI+PHBhdGggZD0iTTExNS4yMywxNDExLjAxIEMxMzMuMjUsMTM5Ny4wMiAxNTUuMDMsMTM4MS4yNyAxNzYsMTM2OSBDMjE4LjMyLDEzNDQuMjQgMjY0LjgzODEsMTMyNC41MTQ5IDI5OS4zNjgxLDEzMTEuMDg0OSAiIGZpbGw9Im5vbmUiIGlkPSJTdHVkZW50LXRvLVRyYWNrIFByb2dyZXNzIiBzdHlsZT0ic3Ryb2tlOiMxODE4MTg7c3Ryb2tlLXdpZHRoOjEuMDsiLz48cG9seWdvbiBmaWxsPSIjMTgxODE4IiBwb2ludHM9IjMwNC45NiwxMzA4LjkxLDI5NS4xMjIyLDEzMDguNDQ0NCwzMDAuMzAwMSwxMzEwLjcyMjQsMjk4LjAyMiwxMzE1LjkwMDMsMzA0Ljk2LDEzMDguOTEiIHN0eWxlPSJzdHJva2U6IzE4MTgxODtzdHJva2Utd2lkdGg6MS4wOyIvPjwvZz48IS0tbGluayBTdHVkZW50IHRvIEpvaW4gRGlzY3Vzc2lvbiBSb29tcy0tPjxnIGlkPSJsaW5rX1N0dWRlbnRfSm9pbiBEaXNjdXNzaW9uIFJvb21zIj48cGF0aCBkPSJNMTE1LjA3LDE0MzkuMDMgQzE1NC45NiwxNDMzLjI0IDIxMC41NTIzLDE0MjUuMTYyNiAyNTkuNTYyMywxNDE4LjA0MjYgIiBmaWxsPSJub25lIiBpZD0iU3R1ZGVudC10by1Kb2luIERpc2N1c3Npb24gUm9vbXMiIHN0eWxlPSJzdHJva2U6IzE4MTgxODtzdHJva2Utd2lkdGg6MS4wOyIvPjxwb2x5Z29uIGZpbGw9IiMxODE4MTgiIHBvaW50cz0iMjY1LjUsMTQxNy4xOCwyNTYuMDE4NCwxNDE0LjUxNTUsMjYwLjU1MTksMTQxNy44OTg4LDI1Ny4xNjg2LDE0MjIuNDMyNCwyNjUuNSwxNDE3LjE4IiBzdHlsZT0ic3Ryb2tlOiMxODE4MTg7c3Ryb2tlLXdpZHRoOjEuMDsiLz48L2c+PCEtLWxpbmsgU3R1ZGVudCB0byBDcmVhdGUvSm9pbiBTdHVkeSBHcm91cHMtLT48ZyBpZD0ibGlua19TdHVkZW50X0NyZWF0ZS9Kb2luIFN0dWR5IEdyb3VwcyI+PHBhdGggZD0iTTExNS4wNywxNDUxLjEyIEMxNTMuMjcsMTQ1Ni44MSAyMDUuMzg1NCwxNDY0LjU3NjQgMjUzLjI3NTQsMTQ3MS43MDY0ICIgZmlsbD0ibm9uZSIgaWQ9IlN0dWRlbnQtdG8tQ3JlYXRlL0pvaW4gU3R1ZHkgR3JvdXBzIiBzdHlsZT0ic3Ryb2tlOiMxODE4MTg7c3Ryb2tlLXdpZHRoOjEuMDsiLz48cG9seWdvbiBmaWxsPSIjMTgxODE4IiBwb2ludHM9IjI1OS4yMSwxNDcyLjU5LDI1MC44OTcyLDE0NjcuMzA4MywyNTQuMjY0NSwxNDcxLjg1MzcsMjQ5LjcxOTEsMTQ3NS4yMjExLDI1OS4yMSwxNDcyLjU5IiBzdHlsZT0ic3Ryb2tlOiMxODE4MTg7c3Ryb2tlLXdpZHRoOjEuMDsiLz48L2c+PCEtLWxpbmsgU3R1ZGVudCB0byBTZW5kIE1lc3NhZ2VzLS0+PGcgaWQ9ImxpbmtfU3R1ZGVudF9TZW5kIE1lc3NhZ2VzIj48cGF0aCBkPSJNMTEzLjI1LDE0ODIuODkgQzEzMS4xMSwxNDk4LjE1IDE1My4zLDE1MTQuNTggMTc2LDE1MjUgQzIwOC44MSwxNTQwLjA2IDI0Mi4zOTY0LDE1NDcuNDM5NiAyNzQuNzA2NCwxNTUxLjg5OTYgIiBmaWxsPSJub25lIiBpZD0iU3R1ZGVudC10by1TZW5kIE1lc3NhZ2VzIiBzdHlsZT0ic3Ryb2tlOiMxODE4MTg7c3Ryb2tlLXdpZHRoOjEuMDsiLz48cG9seWdvbiBmaWxsPSIjMTgxODE4IiBwb2ludHM9IjI4MC42NSwxNTUyLjcyLDI3Mi4yODE1LDE1NDcuNTI2OSwyNzUuNjk3LDE1NTIuMDM2MywyNzEuMTg3NiwxNTU1LjQ1MTgsMjgwLjY1LDE1NTIuNzIiIHN0eWxlPSJzdHJva2U6IzE4MTgxODtzdHJva2Utd2lkdGg6MS4wOyIvPjwvZz48IS0tbGluayBTdHVkZW50IHRvIFBhcnRpY2lwYXRlIGluIFR1dG9yaW5nIFNlc3Npb25zLS0+PGcgaWQ9ImxpbmtfU3R1ZGVudF9QYXJ0aWNpcGF0ZSBpbiBUdXRvcmluZyBTZXNzaW9ucyI+PHBhdGggZD0iTTkwLjk5LDE0ODIuNjUgQzEwNy45MSwxNTE1Ljk2IDEzNi45OSwxNTYzLjQzIDE3NiwxNTkxIEMxOTQuOTgsMTYwNC40MSAyMTEuOTgyNiwxNjEyLjE5NzYgMjM0LjQ3MjYsMTYxOC45Mzc2ICIgZmlsbD0ibm9uZSIgaWQ9IlN0dWRlbnQtdG8tUGFydGljaXBhdGUgaW4gVHV0b3JpbmcgU2Vzc2lvbnMiIHN0eWxlPSJzdHJva2U6IzE4MTgxODtzdHJva2Utd2lkdGg6MS4wOyIvPjxwb2x5Z29uIGZpbGw9IiMxODE4MTgiIHBvaW50cz0iMjQwLjIyLDE2MjAuNjYsMjMyLjc0NzEsMTYxNC4yNDQ3LDIzNS40MzA1LDE2MTkuMjI0NiwyMzAuNDUwNSwxNjIxLjkwOCwyNDAuMjIsMTYyMC42NiIgc3R5bGU9InN0cm9rZTojMTgxODE4O3N0cm9rZS13aWR0aDoxLjA7Ii8+PC9nPjwhLS1saW5rIFN0dWRlbnQgdG8gQXR0ZW5kIEV2ZW50cy0tPjxnIGlkPSJsaW5rX1N0dWRlbnRfQXR0ZW5kIEV2ZW50cyI+PHBhdGggZD0iTTc5LjE2LDE0ODIuOSBDODguNTIsMTUzNi4xNyAxMTMuNDcsMTYzMi4zNSAxNzYsMTY4MyBDMjA0LjA1LDE3MDUuNzIgMjM3LjM5OTgsMTcxMy43NjI4IDI3MC43ODk4LDE3MTYuNDgyOCAiIGZpbGw9Im5vbmUiIGlkPSJTdHVkZW50LXRvLUF0dGVuZCBFdmVudHMiIHN0eWxlPSJzdHJva2U6IzE4MTgxODtzdHJva2Utd2lkdGg6MS4wOyIvPjxwb2x5Z29uIGZpbGw9IiMxODE4MTgiIHBvaW50cz0iMjc2Ljc3LDE3MTYuOTcsMjY4LjEyNDUsMTcxMi4yNTI1LDI3MS43ODY1LDE3MTYuNTY0LDI2Ny40NzQ5LDE3MjAuMjI2MSwyNzYuNzcsMTcxNi45NyIgc3R5bGU9InN0cm9rZTojMTgxODE4O3N0cm9rZS13aWR0aDoxLjA7Ii8+PC9nPjwhLS1saW5rIFN0dWRlbnQgdG8gQWNjZXNzIE1lbnRhbCBIZWFsdGggUmVzb3VyY2VzLS0+PGcgaWQ9ImxpbmtfU3R1ZGVudF9BY2Nlc3MgTWVudGFsIEhlYWx0aCBSZXNvdXJjZXMiPjxwYXRoIGQ9Ik03Ny40OCwxNDgyLjU3IEM4NS4wNSwxNTQ0LjcxIDEwOC4yLDE2NjkuNzggMTc2LDE3NDggQzIwMS4yMywxNzc3LjExIDIzMy40MTk2LDE3OTUuMDgwNSAyNjYuNTk5NiwxODA4LjM2MDUgIiBmaWxsPSJub25lIiBpZD0iU3R1ZGVudC10by1BY2Nlc3MgTWVudGFsIEhlYWx0aCBSZXNvdXJjZXMiIHN0eWxlPSJzdHJva2U6IzE4MTgxODtzdHJva2Utd2lkdGg6MS4wOyIvPjxwb2x5Z29uIGZpbGw9IiMxODE4MTgiIHBvaW50cz0iMjcyLjE3LDE4MTAuNTksMjY1LjMwMDcsMTgwMy41MzIxLDI2Ny41MjgsMTgwOC43MzIxLDI2Mi4zMjgxLDE4MTAuOTU5MywyNzIuMTcsMTgxMC41OSIgc3R5bGU9InN0cm9rZTojMTgxODE4O3N0cm9rZS13aWR0aDoxLjA7Ii8+PC9nPjwhLS1saW5rIFN0dWRlbnQgdG8gU2V0IFdlbGwtYmVpbmcgUmVtaW5kZXJzLS0+PGcgaWQ9ImxpbmtfU3R1ZGVudF9TZXQgV2VsbC1iZWluZyBSZW1pbmRlcnMiPjxwYXRoIGQ9Ik03Ny44NywxNDgyLjUxIEM4OC4zNSwxNTc2Ljc5IDEyMC4zLDE4MjAuMTEgMTc2LDE4NzYgQzE5NC4zNiwxODk0LjQyIDIxMy43NzM3LDE5MDMuNTgwNSAyMzkuMDczNywxOTA5LjQyMDUgIiBmaWxsPSJub25lIiBpZD0iU3R1ZGVudC10by1TZXQgV2VsbC1iZWluZyBSZW1pbmRlcnMiIHN0eWxlPSJzdHJva2U6IzE4MTgxODtzdHJva2Utd2lkdGg6MS4wOyIvPjxwb2x5Z29uIGZpbGw9IiMxODE4MTgiIHBvaW50cz0iMjQ0LjkyLDE5MTAuNzcsMjM3LjA1MDMsMTkwNC44NDgyLDI0MC4wNDgxLDE5MDkuNjQ1NCwyMzUuMjUwOSwxOTEyLjY0MzMsMjQ0LjkyLDE5MTAuNzciIHN0eWxlPSJzdHJva2U6IzE4MTgxODtzdHJva2Utd2lkdGg6MS4wOyIvPjwvZz48IS0tbGluayBTdHVkZW50IHRvIFBhcnRpY2lwYXRlIGluIFdlbGwtYmVpbmcgRGlzY3Vzc2lvbnMtLT48ZyBpZD0ibGlua19TdHVkZW50X1BhcnRpY2lwYXRlIGluIFdlbGwtYmVpbmcgRGlzY3Vzc2lvbnMiPjxwYXRoIGQ9Ik03Ni41NCwxNDgyLjUzIEM4NC40NiwxNTg4LjM3IDExMi4wNSwxODg2LjA3IDE3NiwxOTU2IEMxODkuMDEsMTk3MC4yMyAyMDAuMzYzNCwxOTc4LjE3MSAyMTguNDEzNCwxOTg1LjQzMSAiIGZpbGw9Im5vbmUiIGlkPSJTdHVkZW50LXRvLVBhcnRpY2lwYXRlIGluIFdlbGwtYmVpbmcgRGlzY3Vzc2lvbnMiIHN0eWxlPSJzdHJva2U6IzE4MTgxODtzdHJva2Utd2lkdGg6MS4wOyIvPjxwb2x5Z29uIGZpbGw9IiMxODE4MTgiIHBvaW50cz0iMjIzLjk4LDE5ODcuNjcsMjE3LjEyMjgsMTk4MC42MDA1LDIxOS4zNDEyLDE5ODUuODA0MiwyMTQuMTM3NSwxOTg4LjAyMjYsMjIzLjk4LDE5ODcuNjciIHN0eWxlPSJzdHJva2U6IzE4MTgxODtzdHJva2Utd2lkdGg6MS4wOyIvPjwvZz48IS0tbGluayBJbnN0cnVjdG9yIHRvIFVwbG9hZCBTdHVkeSBNYXRlcmlhbHMtLT48ZyBpZD0ibGlua19JbnN0cnVjdG9yX1VwbG9hZCBTdHVkeSBNYXRlcmlhbHMiPjxwYXRoIGQ9Ik0xMDguMDEsNjU1Ljk3IEMxNDkuNDksNjY0LjQ2IDIxNC43NzIsNjc3LjgzNjMgMjY3Ljg1Miw2ODguNzA2MyAiIGZpbGw9Im5vbmUiIGlkPSJJbnN0cnVjdG9yLXRvLVVwbG9hZCBTdHVkeSBNYXRlcmlhbHMiIHN0eWxlPSJzdHJva2U6IzE4MTgxODtzdHJva2Utd2lkdGg6MS4wOyIvPjxwb2x5Z29uIGZpbGw9IiMxODE4MTgiIHBvaW50cz0iMjczLjczLDY4OS45MSwyNjUuNzE1NSw2ODQuMTg1NywyNjguODMxNyw2ODguOTA2OSwyNjQuMTEwNSw2OTIuMDIzMSwyNzMuNzMsNjg5LjkxIiBzdHlsZT0ic3Ryb2tlOiMxODE4MTg7c3Ryb2tlLXdpZHRoOjEuMDsiLz48L2c+PCEtLWxpbmsgQWRtaW4gdG8gTWFuYWdlIERpc2N1c3Npb24gUm9vbXMtLT48ZyBpZD0ibGlua19BZG1pbl9NYW5hZ2UgRGlzY3Vzc2lvbiBSb29tcyI+PHBhdGggZD0iTTEyNi4wOSw3ODIgQzE2MC4xLDc4MiAxOTkuNTMsNzgyIDIzOS45OSw3ODIgIiBmaWxsPSJub25lIiBpZD0iQWRtaW4tdG8tTWFuYWdlIERpc2N1c3Npb24gUm9vbXMiIHN0eWxlPSJzdHJva2U6IzE4MTgxODtzdHJva2Utd2lkdGg6MS4wOyIvPjxwb2x5Z29uIGZpbGw9IiMxODE4MTgiIHBvaW50cz0iMjQ1Ljk5LDc4MiwyMzYuOTksNzc4LDI0MC45OSw3ODIsMjM2Ljk5LDc4NiwyNDUuOTksNzgyIiBzdHlsZT0ic3Ryb2tlOiMxODE4MTg7c3Ryb2tlLXdpZHRoOjEuMDsiLz48L2c+PCEtLWxpbmsgSW5zdHJ1Y3RvciB0byBIb3N0IFR1dG9yaW5nIFNlc3Npb25zLS0+PGcgaWQ9ImxpbmtfSW5zdHJ1Y3Rvcl9Ib3N0IFR1dG9yaW5nIFNlc3Npb25zIj48cGF0aCBkPSJNMTA4LjAxLDY0Ni4yMSBDMTQ0Ljc3LDY0My4yIDE5OC44NDAxLDYzOC43NzAzIDI0OC45NzAxLDYzNC42NjAzICIgZmlsbD0ibm9uZSIgaWQ9Ikluc3RydWN0b3ItdG8tSG9zdCBUdXRvcmluZyBTZXNzaW9ucyIgc3R5bGU9InN0cm9rZTojMTgxODE4O3N0cm9rZS13aWR0aDoxLjA7Ii8+PHBvbHlnb24gZmlsbD0iIzE4MTgxOCIgcG9pbnRzPSIyNTQuOTUsNjM0LjE3LDI0NS42NTMyLDYzMC45MTg4LDI0OS45NjY3LDYzNC41Nzg2LDI0Ni4zMDY5LDYzOC44OTIsMjU0Ljk1LDYzNC4xNyIgc3R5bGU9InN0cm9rZTojMTgxODE4O3N0cm9rZS13aWR0aDoxLjA7Ii8+PC9nPjwhLS1saW5rIEFJIHRvIEFuYWx5emUgTGVhcm5pbmcgRGF0YS0tPjxnIGlkPSJsaW5rX0FJX0FuYWx5emUgTGVhcm5pbmcgRGF0YSI+PHBhdGggZD0iTTEwNS4wOSw0MDkuNDIgQzEyNC45OSwzOTkuOTMgMTUxLjU2LDM4OC4xIDE3NiwzODAgQzIwNy4xLDM2OS43IDIzNi40OTg1LDM2Mi40NDQ5IDI2Ni41NDg1LDM1Ni4xMjQ5ICIgZmlsbD0ibm9uZSIgaWQ9IkFJLXRvLUFuYWx5emUgTGVhcm5pbmcgRGF0YSIgc3R5bGU9InN0cm9rZTojMTgxODE4O3N0cm9rZS13aWR0aDoxLjA7Ii8+PHBvbHlnb24gZmlsbD0iIzE4MTgxOCIgcG9pbnRzPSIyNzIuNDIsMzU0Ljg5LDI2Mi43ODk0LDM1Mi44MjgsMjY3LjUyNywzNTUuOTE5MSwyNjQuNDM1OSwzNjAuNjU2NywyNzIuNDIsMzU0Ljg5IiBzdHlsZT0ic3Ryb2tlOiMxODE4MTg7c3Ryb2tlLXdpZHRoOjEuMDsiLz48L2c+PCEtLWxpbmsgQUkgdG8gU2VuZCBQZXJzb25hbGl6ZWQgTm90aWZpY2F0aW9ucy0tPjxnIGlkPSJsaW5rX0FJX1NlbmQgUGVyc29uYWxpemVkIE5vdGlmaWNhdGlvbnMiPjxwYXRoIGQ9Ik0xMDUuMDYsNDI1IEMxMzMuNSw0MjUgMTcxLjQ5LDQyNSAyMTMuOTEsNDI1ICIgZmlsbD0ibm9uZSIgaWQ9IkFJLXRvLVNlbmQgUGVyc29uYWxpemVkIE5vdGlmaWNhdGlvbnMiIHN0eWxlPSJzdHJva2U6IzE4MTgxODtzdHJva2Utd2lkdGg6MS4wOyIvPjxwb2x5Z29uIGZpbGw9IiMxODE4MTgiIHBvaW50cz0iMjE5LjkxLDQyNSwyMTAuOTEsNDIxLDIxNC45MSw0MjUsMjEwLjkxLDQyOSwyMTkuOTEsNDI1IiBzdHlsZT0ic3Ryb2tlOiMxODE4MTg7c3Ryb2tlLXdpZHRoOjEuMDsiLz48L2c+PCEtLWxpbmsgQUkgdG8gUHJvdmlkZSBTdHVkeSBTdWdnZXN0aW9ucy0tPjxnIGlkPSJsaW5rX0FJX1Byb3ZpZGUgU3R1ZHkgU3VnZ2VzdGlvbnMiPjxwYXRoIGQ9Ik0xMDUuMTgsNDQwLjA1IEMxMjUuMTEsNDQ5LjI3IDE1MS42OSw0NjAuODMgMTc2LDQ2OSBDMjA1LjQ5LDQ3OC45MSAyMzIuNzk3NSw0ODYuMjA0MyAyNjEuNzE3NSw0OTIuOTY0MyAiIGZpbGw9Im5vbmUiIGlkPSJBSS10by1Qcm92aWRlIFN0dWR5IFN1Z2dlc3Rpb25zIiBzdHlsZT0ic3Ryb2tlOiMxODE4MTg7c3Ryb2tlLXdpZHRoOjEuMDsiLz48cG9seWdvbiBmaWxsPSIjMTgxODE4IiBwb2ludHM9IjI2Ny41Niw0OTQuMzMsMjU5LjcwNjcsNDg4LjM4NjUsMjYyLjY5MTIsNDkzLjE5MTksMjU3Ljg4NTgsNDk2LjE3NjUsMjY3LjU2LDQ5NC4zMyIgc3R5bGU9InN0cm9rZTojMTgxODE4O3N0cm9rZS13aWR0aDoxLjA7Ii8+PC9nPjwhLS1saW5rIFByaXZhY3lTeXN0ZW0gdG8gTWFuYWdlIFVzZXIgRGF0YSBDb25zZW50LS0+PGcgaWQ9ImxpbmtfUHJpdmFjeVN5c3RlbV9NYW5hZ2UgVXNlciBEYXRhIENvbnNlbnQiPjxwYXRoIGQ9Ik0xNDAuMTksMTE1LjUyIEMxNTIuMDIsMTExLjA1IDE2NC4zLDEwNi42OCAxNzYsMTAzIEMyMDYuMiw5My41IDIzNC4yNDE2LDg2LjMyMDMgMjYzLjUyMTYsNzkuNjEwMyAiIGZpbGw9Im5vbmUiIGlkPSJQcml2YWN5U3lzdGVtLXRvLU1hbmFnZSBVc2VyIERhdGEgQ29uc2VudCIgc3R5bGU9InN0cm9rZTojMTgxODE4O3N0cm9rZS13aWR0aDoxLjA7Ii8+PHBvbHlnb24gZmlsbD0iIzE4MTgxOCIgcG9pbnRzPSIyNjkuMzcsNzguMjcsMjU5LjcwMzksNzYuMzgxNSwyNjQuNDk2Myw3OS4zODY5LDI2MS40OTA5LDg0LjE3OTMsMjY5LjM3LDc4LjI3IiBzdHlsZT0ic3Ryb2tlOiMxODE4MTg7c3Ryb2tlLXdpZHRoOjEuMDsiLz48L2c+PCEtLWxpbmsgUHJpdmFjeVN5c3RlbSB0byBIYW5kbGUgUHJpdmFjeSBTZXR0aW5ncy0tPjxnIGlkPSJsaW5rX1ByaXZhY3lTeXN0ZW1fSGFuZGxlIFByaXZhY3kgU2V0dGluZ3MiPjxwYXRoIGQ9Ik0xNDAuMDMsMTQzIEMxNzEuODYsMTQzIDIwNC42NiwxNDMgMjM5Ljc0LDE0MyAiIGZpbGw9Im5vbmUiIGlkPSJQcml2YWN5U3lzdGVtLXRvLUhhbmRsZSBQcml2YWN5IFNldHRpbmdzIiBzdHlsZT0ic3Ryb2tlOiMxODE4MTg7c3Ryb2tlLXdpZHRoOjEuMDsiLz48cG9seWdvbiBmaWxsPSIjMTgxODE4IiBwb2ludHM9IjI0NS43NCwxNDMsMjM2Ljc0LDEzOSwyNDAuNzQsMTQzLDIzNi43NCwxNDcsMjQ1Ljc0LDE0MyIgc3R5bGU9InN0cm9rZTojMTgxODE4O3N0cm9rZS13aWR0aDoxLjA7Ii8+PC9nPjwhLS1saW5rIFByaXZhY3lTeXN0ZW0gdG8gQ29tcGx5IHdpdGggR0RQUiBTdGFuZGFyZHMtLT48ZyBpZD0ibGlua19Qcml2YWN5U3lzdGVtX0NvbXBseSB3aXRoIEdEUFIgU3RhbmRhcmRzIj48cGF0aCBkPSJNMTQwLjI2LDE2OS42MyBDMTUyLjA4LDE3NC4wMSAxNjQuMzQsMTc4LjMxIDE3NiwxODIgQzIwNS40MiwxOTEuMyAyMzIuNDQxLDE5OC41MTc4IDI2MS4xMzEsMjA1LjUxNzggIiBmaWxsPSJub25lIiBpZD0iUHJpdmFjeVN5c3RlbS10by1Db21wbHkgd2l0aCBHRFBSIFN0YW5kYXJkcyIgc3R5bGU9InN0cm9rZTojMTgxODE4O3N0cm9rZS13aWR0aDoxLjA7Ii8+PHBvbHlnb24gZmlsbD0iIzE4MTgxOCIgcG9pbnRzPSIyNjYuOTYsMjA2Ljk0LDI1OS4xNjQ2LDIwMC45MjA3LDI2Mi4xMDI1LDIwNS43NTQ4LDI1Ny4yNjg0LDIwOC42OTI3LDI2Ni45NiwyMDYuOTQiIHN0eWxlPSJzdHJva2U6IzE4MTgxODtzdHJva2Utd2lkdGg6MS4wOyIvPjwvZz48IS0tU1JDPVtiTEpCaGplbTREdGRBb21zQkdsNDdySDJLNXJJdExHZmtSVFRKdnFYTTByc1A0LWVHakxfeHpYdmE5SEd0UjkwWlpzRlN5dXlJWm9JODJFaUFhdWFTY0xIYVo4d1lhMklpSUFaRWFURDBmbk9URVZyZ3FFeHdEdlp4U1pNX2pYVFJGQXBxaTR5ZERROW9UNDJsX0dVY3hYelpLTk1FQzlwVnZ6UVRHN1BqOVYxUDBTNF9WTFc3QnFKTno2SWFiMkFtZmd3S2hlR3ZZV0d2NGRLM2VNNHk0VE82RGo0ZFd4ZWVhSW5JRDR3ZXc1S0x5cDVDdUJMdFhMcTdhWG9YaGdnWkFNNXB2cS1QLTlOOUZaTjJ4MVFWSDNsQ3dJUlBzaG5ZMVFySEJVeURwc1dIN04xQlpQX2NWQ1BUR3ZVdDNkeFpVR3VSWjF0ZmhQbDJ5bVlpeTlwYllidWRMSjVNV1lrb1BUUU5RLXA4THlpbzFfQ25uSU1DSW9adHo1T2p5bjhuTUI3Y2hZR2VKYzJRNWljTDZqNUpIMGlZeFRwV2Rxb2Q3WWRkQW9UeXV1N095dnAyQk9NNlVLd2NCVjRkZG5qdnFtcExiNGFaMUNBVjBGaGJ2Z1JvdlNobW0xWExkaVk3X0paWE1fa3cyVHlvVkp0MjJNVDBsRGxNOVFoeG5ZMlpkZWNzU3lmcURMcjZrTFZ6Vkt6RGlobTdtS1VVVHFhbC1FcERMbjhaZjIwUFdNdjlybHFzd0gzVnZsZURpYmhMSGhlUG9KWEw5UXhlS0ZKM2RpbVF5Q3pnRk5WQ1ZWNnFMbmJmYVhsMG1qM3JzdFlMU3VSMFZMcU4zU1RVRHVnaFVoaXJicG5EZ24tYm9tZDlnNkY5WmxYaW81cnZDS282ajdVYzZWWmVkOFNEYU4xbEtUcGMyU3hnbmtKZ2JKME1vOFd0UUtUcWtjdzZxbGVyc2wwb3h4UVNOc01abnBzZDgySjNZaUlZUFloVXNXVmkzSllmLThNVkRnYjF3UjM0UzNjZGlPVl0tLT48L2c+PC9zdmc+;" vertex="1" parent="1">
            <mxGeometry x="60" y="500" width="509" height="2058" as="geometry" />
          </mxCell>
        </UserObject>
      </root>
    </mxGraphModel>
  </diagram>
</mxfile>
